<svg xmlns="http://www.w3.org/2000/svg" width="576" height="433"><path d="M0 0v433h576V0H0z"/><path d="M432 171c-.986 1.479-1 1.203-1 3 1.289-1.443 1.401-1.234 1-3z" fill="#b1b1b7"/><path d="M433.667 171.333c-.445.445.611.389.666.334.445-.445-.611-.389-.666-.334z" fill="#fff"/><path d="M433 172c-4.963 5.671-10.081 12.078-17.004 15.37-6.89 3.276-20.592 5.635-22.996 13.63 2.709.648 5.216.942 8 1l-2-4c10.286-2.649 22.212-8.853 30-16 0 5.085-.554 9.95-.91 15-.196 2.772.295 6.019-1.407 8.428-2.155 3.05-7.359 4.034-10.698 5.127-8.663 2.836-20.729 3.171-26.985 10.445 6.697 1.98 14.073.736 21 1.039 5.514.242 10.624 2.051 16 2.961-.121 2.661-.149 3.471 2 5v-4c5.037.216 9.927 1.256 15 .91 3.932-.268 8.052-1.673 12-1.326 2.479.218 4.588 1.625 7 2.117 3.625.741 7.404-.053 11-.571 7.798-1.125 14.821-5.302 13-14.13-5.072 8.088-10.745 13.255-21 11.856-4.282-.584-7.486-3.176-12-2.527-6.498.935-15.563 5.375-21.682.733-2.235-1.696-2.309-4.489-2.309-7.062 0-10.015 11.906-13.914 19.991-17l-1-3c-6.217 2.275-12.126 5.921-18 9 1.47-7.916.929-16.067 2.224-24 .568-3.48 2.618-5.785.776-9z" fill="#82819c"/><path d="M434 172l1 1-1-1z" fill="#bababa"/><path d="M430 174l-1 2h2c0-1.853.3-1.35-1-2z" fill="#9e9ea7"/><path d="M434.333 175.667c-.055.055-.111 1.111.334.666.055-.055.111-1.111-.334-.666z" fill="#fff"/><path d="M433 176v3c.696-1.554.696-1.446 0-3z" fill="#b7b7be"/><path d="M427 177l1 1-1-1z" fill="#fff"/><path d="M432 178v3c.696-1.554.696-1.446 0-3z" fill="#9e9ea7"/><path d="M426 179l1 1-1-1z" fill="#c9c9e4"/><path d="M183 180c3.163 1.327 6.586 1 10 1-3.163-1.327-6.586-1-10-1z" fill="#dbdbff"/><path d="M193 180l1 1-1-1z" fill="#aaf"/><path d="M195 180l1 1-1-1z" fill="#fff"/><path d="M425 180l1 1-1-1z" fill="#dde"/><path d="M174 181l1 1-1-1z" fill="#fff"/><path d="M175 181c1.506.683 2.315.826 4 1-1.506-.683-2.315-.826-4-1z" fill="#c8c8db"/><path d="M179 181c1.769.779 3.036.912 5 1-1.769-.779-3.036-.912-5-1z" fill="#9b9fb8"/><path d="M97 205c-3.165 3.974-9.404 10.278-4 15 .19-8.493 7.395-10.28 13.335-14.371 9.296-6.402 20.924-9.501 31.665-12.833 7.655-2.375 15.902-4.928 24-4.796 3.384-2.564 6.833-1.536 10.83-2.259 8.346-1.51 18.689-3.178 27.17-1.253 3.518.799 6.739 3.03 10 4.512l3-4c-18.425-6.717-38.44-3.162-57 .536-8.637 1.721-17.674 3.414-26 6.403-5.491 1.972-11.425 3.647-16.715 6.088-5.066 2.339-10.727 6.401-16.285 6.973z" fill="#8082aa"/><path d="M196 181c2.052.874 3.747.953 6 1-2.052-.874-3.747-.953-6-1z" fill="#bfbfd9"/><path d="M423 181l1 1-1-1z" fill="#fff"/><path d="M424 181l1 1-1-1z" fill="#c1c1c9"/><path d="M168 182l1 1-1-1z" fill="#fff"/><path d="M169 182c2.052.874 3.747.953 6 1-2.052-.874-3.747-.953-6-1z" fill="#aaaac8"/><path d="M202 182c1.769.779 3.036.912 5 1-1.769-.779-3.036-.912-5-1z" fill="#b3b3cc"/><path d="M428 182l1 1-1-1z" fill="#b7b7d8"/><path d="M161.667 183.333c-.445.445.611.389.666.334.445-.445-.611-.389-.666-.334z" fill="#dbdbff"/><path d="M209.667 183.333c-.445.445.611.389.666.334.445-.445-.611-.389-.666-.334z" fill="#aaf"/><path d="M421.333 183.667c-.055.055-.111 1.111.334.666.055-.055.111-1.111-.334-.666z" fill="#9f9faf"/><path d="M427 183l1 1-1-1z" fill="#bfbfff"/><path d="M157 184c1.506.683 2.315.826 4 1-1.506-.683-2.315-.826-4-1z" fill="#bfbfdf"/><path d="M175 184c3.163 1.327 6.586 1 10 1-3.163-1.327-6.586-1-10-1z" fill="#a9acc1"/><path d="M185 184l1 1-1-1z" fill="#fff"/><path d="M216 196v-2c-3.986-3.01-8.228-6.39-13.039-7.945-10.032-3.243-21.907-.665-31.961.736-17.191 2.395-33.664 5.832-50 12.148-7.523 2.909-15.254 6.311-21.83 11.059-2.472 1.786-5.893 4.575-5.874 7.936.02 3.51 3.904 4.962 6.705 5.845 7.606 2.398 16.245 2.002 23.999.797 16.57-2.577 32.811-6.957 48.999-11.024 15.442-3.879 29.809-8.275 43.001-17.552z"/><path d="M187.667 184.333c-.445.445.611.389.666.334.445-.445-.611-.389-.666-.334z" fill="#fff"/><path d="M189.667 184.333c-.445.445.611.389.666.334.445-.445-.611-.389-.666-.334z" fill="#b5b5bf"/><path d="M194 184c2.613 1.098 5.165.993 8 1-2.613-1.098-5.165-.993-8-1z" fill="#a7aac6"/><path d="M211 184l1 1-1-1z" fill="#bfbfdf"/><path d="M212 184l1 1-1-1z" fill="#fff"/><path d="M420 184l1 1-1-1z" fill="#d5d5ea"/><path d="M153 185c1.506.683 2.315.826 4 1-1.506-.683-2.315-.826-4-1z" fill="#a6a9c9"/><path d="M175 185l1 1-1-1z" fill="#dbdbff"/><path d="M191 185c1.248.685 1.549.749 3 1-1.248-.685-1.548-.749-3-1z" fill="#c4c4d8"/><path d="M201.667 185.333c-.445.445.611.389.666.334.445-.445-.611-.389-.666-.334z" fill="#cfcfea"/><path d="M213 185l1 1-1-1z" fill="#c3c3d2"/><path d="M418 185c1.248.685 1.548.749 3 1-1.248-.685-1.548-.749-3-1z" fill="#acacbc"/><path d="M425 185l1 1-1-1z" fill="#e3e3ff"/><path d="M147 186l1 1-1-1z" fill="#aaf"/><path d="M148.667 186.333c-.445.445.611.389.666.334.445-.445-.611-.389-.666-.334z" fill="#d5d5f1"/><path d="M162 186c1.769.779 3.036.912 5 1-1.769-.779-3.036-.912-5-1z" fill="#9a9ab5"/><path d="M167.667 186.333c-.445.445.611.389.666.334.445-.445-.611-.389-.666-.334z" fill="#dfdfdf"/><path d="M169.667 186.333c-.445.445.611.389.666.334.445-.445-.611-.389-.666-.334z" fill="#aaf"/><path d="M171 186c1.248.685 1.548.749 3 1-1.248-.685-1.548-.749-3-1z" fill="#fff"/><path d="M204.667 186.333c-.445.445.611.389.666.334.445-.445-.611-.389-.666-.334z" fill="#dbdbff"/><path d="M210 189l6 5 3-2c-2.103-3.923-5.601-7.637-9-3z" fill="#80808f"/><path d="M215 186l1 1-1-1z" fill="#ccc"/><path d="M327 186c-.562 5.033.297 9.978-.823 15-2.575 11.554-11.709 22.942-24.177 23.942-4.599.369-10.442.74-14.961-.241-2.829-.613-5.044-2.565-8.039-2.588-2.981-.023-5.277 1.755-8.039 2.547-3.276.94-6.619.535-9.961.34 4.611 7.894 13.628.757 20-1 2.66 4.554 7.184 3.998 12 4 7.522.003 15.254-.457 21.996-4.278 3.326-1.885 5.641-4.937 9.004-6.722.068-1.875.398-3.208 1-5 .695 6.488-1 13.387-1 20 5.625-.166 9.631-3.598 15-4.3 4.529-.592 9.409 1.205 14 1.3-4.307-3.841-14.834-7.467-19-2l-2-1c-1.788 1.422-2.706 1.697-5 2 .091-4.264 1.51-7.858 2.11-12 1.457-10.063 1.346-19.998.89-30h-3z" fill="#81819b"/><path d="M330 186v6c.951-2.285.951-3.715 0-6z" fill="#9c98a7"/><path d="M416.667 186.333c-.445.445.611.389.666.334.445-.445-.611-.389-.666-.334z" fill="#c2c7d1"/><path d="M423.667 186.333c-.445.445.611.389.666.334.445-.445-.611-.389-.666-.334z" fill="#fff"/><path d="M428 186v8c1.161-2.77 1.161-5.23 0-8z" fill="#a5a5bb"/><path d="M144 187l1 1-1-1z" fill="#fff"/><path d="M145.667 187.333c-.445.445.611.389.666.334.445-.445-.611-.389-.666-.334z" fill="#c8c8db"/><path d="M158.667 187.333c-.445.445.611.389.666.334.445-.445-.611-.389-.666-.334z" fill="#a4a4cb"/><path d="M216 187l1 1-1-1z" fill="#d1d1d1"/><path d="M326 187l1 1-1-1z" fill="#cacad3"/><path d="M414 187l1 1-1-1z" fill="#fff"/><path d="M415 187l1 1-1-1z" fill="#bfbfcc"/><path d="M422 187l1 1-1-1z" fill="#dbdbff"/><path d="M140 188l1 1-1-1z" fill="#fff"/><path d="M141 188c1.506.683 2.315.826 4 1-1.506-.683-2.315-.826-4-1z" fill="#aac"/><path d="M156.667 188.333c-.445.445.611.389.666.334.445-.445-.611-.389-.666-.334z" fill="#c4c4eb"/><path d="M158 188l1 1-1-1z" fill="#fff"/><path d="M207.667 188.333c-.445.445.611.389.666.334.445-.445-.611-.389-.666-.334z" fill="#bdc2d5"/><path d="M217 188l1 1-1-1z" fill="#ccccd9"/><path d="M412 188c1.248.685 1.548.749 3 1-1.248-.685-1.548-.749-3-1z" fill="#acacbb"/><path d="M421 188l1 1-1-1z" fill="#fff"/><path d="M136 189l1 1-1-1z" fill="#aaf"/><path d="M137 189l1 1-1-1z" fill="#fff"/><path d="M150.667 189.333c-.445.445.611.389.666.334.445-.445-.611-.389-.666-.334z" fill="#dbdbff"/><path d="M152 189c1.248.685 1.548.749 3 1-1.248-.685-1.548-.749-3-1z" fill="#aaf"/><path d="M155 189l1 1-1-1z" fill="#fff"/><path d="M209.667 189.333c-.445.445.611.389.666.334.445-.445-.611-.389-.666-.334z" fill="#d2d2e1"/><path d="M218.333 189.667c-.055.055-.111 1.111.334.666.055-.055.111-1.111-.334-.666z" fill="#b3b0c3"/><path d="M326 189l1 1-1-1m83 0l1 1-1-1z" fill="#fff"/><path d="M418.667 189.333c-.445.445.611.389.666.334.445-.445-.611-.389-.666-.334z" fill="#aaf"/><path d="M431 189v8c1.161-2.77 1.161-5.23 0-8z" fill="#cfcfe3"/><path d="M495 189c.545 1.635.365 1.455 2 2v-2h-2z" fill="#bfbfbf"/><path d="M132.667 190.333c-.445.445.611.389.666.334.445-.445-.611-.389-.666-.334z" fill="#d8d8eb"/><path d="M134.667 190.333c-.445.445.611.389.666.334.445-.445-.611-.389-.666-.334z" fill="#b2b2d4"/><path d="M144 190c1.248.685 1.548.749 3 1-1.248-.685-1.548-.749-3-1z" fill="#aeb9d1"/><path d="M147 190l1 1-1-1z" fill="#fff"/><path d="M211.667 190.333c-.445.445.611.389.666.334.445-.445-.611-.389-.666-.334z" fill="#a5a5af"/><path d="M407.667 190.333c-.445.445.611.389.666.334.445-.445-.611-.389-.666-.334z" fill="#c4c4d1"/><path d="M415 190c1.248.685 1.548.749 3 1-1.248-.685-1.548-.749-3-1z" fill="#aaaabd"/><path d="M493 190l1 1-1-1z" fill="#fff"/><path d="M494 190c-.905 6.126-3.143 12.102-5 18h2c-.949 5.415-2.035 10.47-1.999 15.999.012 1.896-.332 4.663 1.027 6.219 3.217 3.685 11.374-1.737 14.972-2.473 7.748-1.586 16.325 1.94 24 2.612 3.318.291 6.669-1.146 10-1.357-3.506-1.471-7.273-.722-11-1.325-7.764-1.256-14.996-3.406-23-2.567-3.479.365-10.376 5.029-12.802.573-1.284-2.357-.126-6.153.068-8.681.65-8.45 5.783-18.868 3.734-27h-2z" fill="#80809a"/><path d="M497 190v4c.71-1.76.71-2.241 0-4z" fill="#d5d5df"/><path d="M130 191l1 1-1-1z" fill="#ccf"/><path d="M141 191c1.248.685 1.548.749 3 1-1.248-.685-1.548-.749-3-1z" fill="#c6c6e3"/><path d="M213 191l1 1-1-1z" fill="#b2b2bd"/><path d="M219 191v6c.951-2.285.951-3.715 0-6z" fill="#a1aabd"/><path d="M405.667 191.333c-.445.445.611.389.666.334.445-.445-.611-.389-.666-.334z" fill="#b0b0b9"/><path d="M413 191c1.248.685 1.549.749 3 1-1.248-.685-1.548-.749-3-1z" fill="#c3c3da"/><path d="M452 191c1.506.683 2.315.826 4 1-1.506-.683-2.315-.826-4-1z" fill="#aaaab3"/><path d="M493 191v3c.696-1.554.696-1.446 0-3z" fill="#bcc3cb"/><path d="M127.667 192.333c-.445.445.611.389.666.334.445-.445-.611-.389-.666-.334z" fill="#e1e1ff"/><path d="M139 192l1 1-1-1z" fill="#dfdfdf"/><path d="M140 192l1 1-1-1z" fill="#aaf"/><path d="M213 192l1 1-1-1z" fill="#fff"/><path d="M214 192l1 1-1-1z" fill="#b7bfbf"/><path d="M217 192c-4.305 9.017-14.914 13.364-24 16.49-14.323 4.928-29.316 7.949-44 11.353-8.561 1.985-17.255 4.586-26 5.315-9.99.833-30.871 3.507-32-11.158-5.572 8.169 3.956 12.944 11 14-4.417 4.139-14.034 4.409-20 5.154-12.784 1.597-25.166 5.724-38 6.76-3.655.296-7.383 1.462-11 1.552-4.177.104-7.329-2.449-9 2.534 15.056 2.938 30.495-7.152 45-4 3.118-2.365 7.215-2.319 11-3.269 9.891-2.483 22.848-6.712 33-4.731 3.486-2.641 7.753-2 12-2h24c31.641 0 63.305-1 95-1-5.953-6.079-21.898-3-30-3-28.433 0-56.618 2-85 2v-2c9.216-.025 18.062-2.495 27-4.501 14.704-3.299 28.825-7.113 42.999-12.344 8.563-3.16 19.429-6.675 20.001-17.155h-2z" fill="#8181a1"/><path d="M331.333 192.667c-.055.055-.111 1.111.334.666.055-.055.111-1.111-.334-.666z" fill="#c8c8c8"/><path d="M400 193c1.809.574 2.069.465 4 0-1.659-.406-2.242-.309-4 0z" fill="#c2c2cd"/><path d="M412 192l1 1-1-1z" fill="#bfbfbf"/><path d="M413 192l1 1-1-1m37 0l1 1-1-1z" fill="#fff"/><path d="M451 192l1 1-1-1z" fill="#b6b6b6"/><path d="M448 198c2.738-.61 5.195-1.046 8-1v-5c-4.211.565-6.715 1.836-8 6z" fill="#828189"/><path d="M456 192v3c.696-1.554.696-1.446 0-3z" fill="#9f9f9f"/><path d="M124 193c1.248.685 1.548.749 3 1-1.248-.685-1.549-.749-3-1z" fill="#bfcadf"/><path d="M135 193l1 1-1-1z" fill="#bcbcd3"/><path d="M215 193l1 1-1-1z" fill="#b8b8cc"/><path d="M410 193l1 1-1-1z" fill="#dde"/><path d="M449.667 193.333c-.445.445.611.389.666.334.445-.445-.611-.389-.666-.334z" fill="#b0b0bf"/><path d="M121 194c1.248.685 1.548.749 3 1-1.248-.685-1.549-.749-3-1z" fill="#aaaac6"/><path d="M131 194c1.506.683 2.315.826 4 1-1.506-.683-2.315-.826-4-1z" fill="#c8c8de"/><path d="M331 194l1 1-1-1z" fill="#fff"/><path d="M398.667 194.333c-.445.445.611.389.666.334.445-.445-.611-.389-.666-.334z" fill="#ababb3"/><path d="M406 194c1.506.683 2.315.826 4 1-1.506-.683-2.315-.826-4-1z" fill="#c2c2d0"/><path d="M427.333 194.667c-.055.055-.111 1.111.334.666.055-.055.111-1.111-.334-.666z" fill="#d5d5ff"/><path d="M448 194l1 1-1-1z" fill="#d1d1d1"/><path d="M492 194v3c.696-1.554.696-1.446 0-3z" fill="#dbdbed"/><path d="M118.667 195.333c-.445.445.611.389.666.334.445-.445-.611-.389-.666-.334z" fill="#c6e3ff"/><path d="M130 195l1 1-1-1z" fill="#aaf"/><path d="M395.667 195.333c-.445.445.611.389.666.334.445-.445-.611-.389-.666-.334z" fill="#e4e4e4"/><path d="M397 195l1 1-1-1z" fill="#b5b5ba"/><path d="M405.667 195.333c-.445.445.611.389.666.334.445-.445-.611-.389-.666-.334z" fill="#fff"/><path d="M446.667 195.333c-.445.445.611.389.666.334.445-.445-.611-.389-.666-.334z" fill="#d5d5d5"/><path d="M456 195l1 1-1-1z" fill="#fff"/><path d="M496 195v3c.696-1.554.696-1.446 0-3z" fill="#bfbfca"/><path d="M115 196l1 1-1-1z" fill="#fff"/><path d="M116 196c1.248.685 1.548.749 3 1-1.248-.685-1.549-.749-3-1z" fill="#bfbfdf"/><path d="M125.667 196.333c-.445.445.611.389.666.334.445-.445-.611-.389-.666-.334z" fill="#b6b6c8"/><path d="M214 196l1 1-1-1z" fill="#fff"/><path d="M394 196l1 1-1-1z" fill="#d5d5d5"/><path d="M404 196l1 1-1-1z" fill="#e6e6e6"/><path d="M427 196v6c.951-2.285.951-3.715 0-6z" fill="#bdbdd6"/><path d="M445 196l1 1-1-1z" fill="#d7d7f2"/><path d="M452.667 196.333c-.445.445.611.389.666.334.445-.445-.611-.389-.666-.334z" fill="#a5a5ad"/><path d="M122 197c1.248.685 1.548.749 3 1-1.248-.685-1.549-.749-3-1z" fill="#c5c5dc"/><path d="M213 197l1 1-1-1z" fill="#fff"/><path d="M218 197l1 1-1-1z" fill="#b4b4cd"/><path d="M330 197v8c1.161-2.77 1.161-5.23 0-8z" fill="#a6a6b9"/><path d="M393 197l1 1-1-1z" fill="#e3e3e3"/><path d="M401 197l1 1-1-1z" fill="#cdcdd5"/><path d="M402 197l1 1-1-1z" fill="#fff"/><path d="M431 197v4c.71-1.76.71-2.241 0-4z" fill="#bfbfbf"/><path d="M443.667 197.333c-.445.445.611.389.666.334.445-.445-.611-.389-.666-.334z" fill="#a9a9bf"/><path d="M450 197c1.248.685 1.548.749 3 1-1.248-.685-1.548-.749-3-1z" fill="#ccccdb"/><path d="M454.667 197.333c-.445.445.611.389.666.334.445-.445-.611-.389-.666-.334M111 198l1 1-1-1z" fill="#fff"/><path d="M121 198l1 1-1-1z" fill="#bfbfcf"/><path d="M122 198l1 1-1-1z" fill="#fff"/><path d="M213 198l1 1-1-1z" fill="#c7c7e7"/><path d="M218 198l1 1-1-1z" fill="#fff"/><path d="M399 198v3c.696-1.554.696-1.446 0-3z" fill="#a4a4ad"/><path d="M400 198l1 1-1-1m41 0l1 1-1-1z" fill="#fff"/><path d="M442 198l1 1-1-1z" fill="#b8b8cc"/><path d="M449 198l1 1-1-1z" fill="#d8d8d8"/><path d="M109 199c1.248.685 1.548.749 3 1-1.248-.685-1.549-.749-3-1z" fill="#c2c2e0"/><path d="M119 199l1 1-1-1z" fill="#fff"/><path d="M211.667 199.333c-.445.445.611.389.666.334.445-.445-.611-.389-.666-.334z" fill="#c3c3e1"/><path d="M216 199l1 1-1-1z" fill="#b8b8d8"/><path d="M326 199l1 1-1-1z" fill="#fff"/><path d="M392.333 199.667c-.055.055-.111 1.111.334.666.055-.055.111-1.111-.334-.666z" fill="#9f9f9f"/><path d="M440 199l1 1-1-1z" fill="#cfcfdf"/><path d="M446.667 199.333c-.445.445.611.389.666.334.445-.445-.611-.389-.666-.334z" fill="#b3b3cc"/><path d="M448 199l1 1-1-1z" fill="#fff"/><path d="M495 199l1 1-1-1z" fill="#bfbfca"/><path d="M107.667 200.333c-.445.445.611.389.666.334.445-.445-.611-.389-.666-.334z" fill="#a1a1bf"/><path d="M115.667 200.333c-.445.445.611.389.666.334.445-.445-.611-.389-.666-.334z" fill="#bcbce4"/><path d="M438.667 200.333c-.445.445.611.389.666.334.445-.445-.611-.389-.666-.334z" fill="#aba8c3"/><path d="M446 200l1 1-1-1m-342 1l1 1-1-1z" fill="#fff"/><path d="M105 201l1 1-1-1z" fill="#bfbfcf"/><path d="M114 201l1 1-1-1z" fill="#fff"/><path d="M207.667 201.333c-.445.445.611.389.666.334.445-.445-.611-.389-.666-.334z" fill="#d9d9f2"/><path d="M215 201l1 1-1-1z" fill="#fff"/><path d="M393.667 201.333c-.445.445.611.389.666.334.445-.445-.611-.389-.666-.334z" fill="#b8b8bc"/><path d="M401 201l1 1-1-1m30 0l1 1-1-1z" fill="#fff"/><path d="M435.667 201.333c-.445.445.611.389.666.334.445-.445-.611-.389-.666-.334z" fill="#d8d8eb"/><path d="M443.667 201.333c-.445.445.611.389.666.334.445-.445-.611-.389-.666-.334z" fill="#aaf"/><path d="M494 201v7c1.059-2.534 1.059-4.466 0-7z" fill="#d3d3e2"/><path d="M102 202l1 1-1-1z" fill="#fff"/><path d="M103 202l1 1-1-1z" fill="#c5c5de"/><path d="M109 202c1.506.683 2.315.826 4 1-1.506-.683-2.315-.826-4-1z" fill="#a1a5c5"/><path d="M205.667 202.333c-.445.445.611.389.666.334.445-.445-.611-.389-.666-.334z" fill="#c8c8de"/><path d="M212.667 202.333c-.445.445.611.389.666.334.445-.445-.611-.389-.666-.334z" fill="#bfbfcf"/><path d="M325 202v3c.696-1.554.696-1.446 0-3z" fill="#b9b9ca"/><path d="M396 202c1.506.683 2.315.826 4 1-1.506-.683-2.315-.826-4-1z" fill="#aaaab2"/><path d="M427 202v4c.71-1.76.71-2.24 0-4z" fill="#a9a9bb"/><path d="M430 202c.406 2.092.217 2.02 2 3-.691-1.388-.985-1.861-2-3z" fill="#b9b9d1"/><path d="M434 202l1 1-1-1z" fill="#cfcfdf"/><path d="M440 202c1.248.685 1.548.749 3 1-1.248-.685-1.548-.749-3-1z" fill="#b1b1bc"/><path d="M490 202v3c.696-1.554.696-1.446 0-3z" fill="#babad5"/><path d="M109 203l1 1-1-1z" fill="#dbdbff"/><path d="M432 203l1 1-1-1z" fill="#fff"/><path d="M439 203l1 1-1-1z" fill="#cccce6"/><path d="M440 203l1 1-1-1z" fill="#fff"/><path d="M99.667 204.333c-.445.445.611.389.666.334.445-.445-.61-.389-.666-.334z" fill="#b6b6ce"/><path d="M107.667 204.333c-.445.445.611.389.666.334.445-.445-.611-.389-.666-.334z" fill="#aaf"/><path d="M201.667 204.333c-.445.445.611.389.666.334.445-.445-.611-.389-.666-.334z" fill="#dbdbff"/><path d="M210.667 204.333c-.445.445.611.389.666.334.445-.445-.611-.389-.666-.334z" fill="#fff"/><path d="M438 204l1 1-1-1z" fill="#bfbfff"/><path d="M489 204l1 1-1-1z" fill="#fff"/><path d="M98 205l1 1-1-1z" fill="#cccce0"/><path d="M106 205l1 1-1-1z" fill="#cccce6"/><path d="M199 205l1 1-1-1z" fill="#d8d8eb"/><path d="M206 205c1.248.685 1.549.749 3 1-1.248-.685-1.548-.749-3-1z" fill="#aaaac5"/><path d="M324.333 205.667c-.055.055-.111 1.111.334.666.055-.055.111-1.111-.334-.666z" fill="#d6d6de"/><path d="M426 205l1 1-1-1z" fill="#aaf"/><path d="M434.667 205.333c-.445.445.611.389.666.334.445-.445-.611-.389-.666-.334z" fill="#b1b1bc"/><path d="M436 205l1 1-1-1z" fill="#fff"/><path d="M489 205l1 1-1-1z" fill="#b9b9ca"/><path d="M197.667 206.333c-.445.445.611.389.666.334.445-.445-.611-.389-.666-.334z" fill="#aeaec9"/><path d="M206 206l1 1-1-1z" fill="#d5d5ff"/><path d="M330 206l1 1-1-1z" fill="#fff"/><path d="M433.667 206.333c-.445.445.611.389.666.334.445-.445-.611-.389-.666-.334M95 207l1 1-1-1z" fill="#bfbfff"/><path d="M102 207c1.248.685 1.548.749 3 1-1.248-.685-1.549-.749-3-1z" fill="#b1bcd3"/><path d="M193 207c1.506.683 2.315.826 4 1-1.506-.683-2.315-.826-4-1z" fill="#d5d5ea"/><path d="M204.667 207.333c-.445.445.611.389.666.334.445-.445-.611-.389-.666-.334z" fill="#fff"/><path d="M323 207l1 1-1-1z" fill="#aaf"/><path d="M422.667 207.333c-.445.445.611.389.666.334.445-.445-.611-.389-.666-.334z" fill="#d5d5d5"/><path d="M424.667 207.333c-.445.445.611.389.666.334.445-.445-.611-.389-.666-.334z" fill="#a3a1b5"/><path d="M431.667 207.333c-.445.445.611.389.666.334.445-.445-.611-.389-.666-.334z" fill="#aaf"/><path d="M488 207c-.721 3.56-1.635 6.36-1 10 3.588-2.85 5.573-7.22 1-10z" fill="#8582b1"/><path d="M93.333 208.667c-.055.055-.11 1.111.334.666.055-.055.11-1.111-.334-.666z" fill="#d1d1e8"/><path d="M100 208l1 1-1-1z" fill="#bfbfdf"/><path d="M191.667 208.333c-.445.445.611.389.666.334.445-.445-.611-.389-.666-.334z" fill="#b2b2cc"/><path d="M200 208c1.248.685 1.548.749 3 1-1.248-.685-1.548-.749-3-1z" fill="#aaaac6"/><path d="M420 208l1 1-1-1z" fill="#e6e6e6"/><path d="M487 208v3c.696-1.554.696-1.446 0-3z" fill="#beb7d8"/><path d="M494 208l1 1-1-1z" fill="#fff"/><path d="M98.667 209.333c-.445.445.61.389.666.334.445-.445-.61-.389-.666-.334z" fill="#aaa"/><path d="M189.667 209.333c-.445.445.611.389.666.334.445-.445-.611-.389-.666-.334z" fill="#a8abbf"/><path d="M197 209c1.248.685 1.549.749 3 1-1.248-.685-1.548-.749-3-1z" fill="#c8c8db"/><path d="M329 209v6c.951-2.285.951-3.715 0-6z" fill="#c6c6e3"/><path d="M419.667 209.333c-.445.445.611.389.666.334.445-.445-.611-.389-.666-.334z" fill="#9f9eb0"/><path d="M429 209v8c1.161-2.77 1.161-5.23 0-8z" fill="#9f98b3"/><path d="M493.333 209.667c-.055.055-.111 1.111.334.666.055-.055.111-1.111-.334-.666z" fill="#bfbfbf"/><path d="M91 210l1 1-1-1z" fill="#fff"/><path d="M97 210l1 1-1-1z" fill="#b8bed0"/><path d="M98 210l1 1-1-1z" fill="#fff"/><path d="M184 210c1.248.685 1.548.749 3 1-1.248-.685-1.548-.749-3-1z" fill="#e3e3ff"/><path d="M196.667 210.333c-.445.445.611.389.666.334.445-.445-.611-.389-.666-.334z" fill="#aaf"/><path d="M322.333 210.667c-.055.055-.111 1.111.334.666.055-.055.111-1.111-.334-.666z" fill="#a5a5c2"/><path d="M414.667 210.333c-.445.445.611.389.666.334.445-.445-.611-.389-.666-.334z" fill="#e3e3f1"/><path d="M424 210l2 3c1.118-2.14.251-2.527-2-3z" fill="#d2d2eb"/><path d="M90 211v3c.696-1.554.696-1.446 0-3z" fill="#d5d5ff"/><path d="M180 211l1 1-1-1z" fill="#fff"/><path d="M181 211c1.248.685 1.548.749 3 1-1.248-.685-1.548-.749-3-1z" fill="#d5d5d5"/><path d="M191 211c1.248.685 1.548.749 3 1-1.248-.685-1.548-.749-3-1z" fill="#aaaac4"/><path d="M194 211l1 1-1-1z" fill="#fff"/><path d="M321 211l1 1-1-1z" fill="#e3e3ff"/><path d="M411 211c1.248.685 1.549.749 3 1-1.248-.685-1.548-.749-3-1z" fill="#c8c8d2"/><path d="M421.667 211.333c-.445.445.611.389.666.334.445-.445-.611-.389-.666-.334z" fill="#a6a6bf"/><path d="M401 218c3.508 1.472 7.249.792 11 1.093 4.772.384 9.147 1.866 14 1.907v-10c-8.466 1.504-16.533 5.248-25 7z"/><path d="M486 211l1 1-1-1z" fill="#e6e6e6"/><path d="M492.333 211.667c-.055.055-.111 1.111.334.666.055-.055.111-1.111-.334-.666z" fill="#bfbfbf"/><path d="M95 212v2c1.635-.545 1.455-.365 2-2h-2z" fill="#ccf"/><path d="M189.667 212.333c-.445.445.611.389.666.334.445-.445-.611-.389-.666-.334z" fill="#c3c3da"/><path d="M191 212l1 1-1-1z" fill="#fff"/><path d="M325 212c.031 1.832-.079 1.559 1 3-.251-1.452-.315-1.752-1-3z" fill="#b7b7d1"/><path d="M409.667 212.333c-.445.445.611.389.666.334.445-.445-.611-.389-.666-.334z" fill="#aaaac0"/><path d="M418 214l3-1c-1.778-.955-2.021-.766-3 1z" fill="#bfbfd2"/><path d="M94 213l1 1-1-1z" fill="#b3b3d0"/><path d="M172 213l1 1-1-1z" fill="#fff"/><path d="M173.667 213.333c-.445.445.611.389.666.334.445-.445-.611-.389-.666-.334z" fill="#d5e3f1"/><path d="M187.667 213.333c-.445.445.611.389.666.334.445-.445-.611-.389-.666-.334z" fill="#dfdfdf"/><path d="M417 213l1 1-1-1z" fill="#e1e1f0"/><path d="M93 214l1 1-1-1z" fill="#b1b1eb"/><path d="M169 214l1 1-1-1z" fill="#fff"/><path d="M170 214c1.248.685 1.549.749 3 1-1.248-.685-1.548-.749-3-1z" fill="#bfbfdb"/><path d="M183 214l1 1-1-1z" fill="#b9b9d1"/><path d="M319.333 214.667c-.055.055-.111 1.111.334.666.055-.055.111-1.111-.334-.666z" fill="#bab6cb"/><path d="M324 214l1 1-1-1z"/><path d="M400 214l1 1-1-1z" fill="#fff"/><path d="M401.667 214.333c-.445.445.611.389.666.334.445-.445-.611-.389-.666-.334z" fill="#b7b3ce"/><path d="M411.667 214.333c-.445.445.611.389.666.334.445-.445-.611-.389-.666-.334z" fill="#ccd"/><path d="M484 214v3c.696-1.554.696-1.446 0-3z" fill="#b2b2cc"/><path d="M89 215l1 1-1-1z" fill="#b7b7d1"/><path d="M180.667 215.333c-.445.445.611.389.666.334.445-.445-.611-.389-.666-.334z" fill="#bfd5d5"/><path d="M182 215l1 1-1-1m141 0l1 3c.685-1.248.749-1.548 1-3h-2z" fill="#fff"/><path d="M408 215c1.248.685 1.549.749 3 1-1.248-.685-1.548-.749-3-1z" fill="#bebed2"/><path d="M488.333 215.667c-.055.055-.111 1.111.334.666.055-.055.111-1.111-.334-.666z" fill="#c6c6ff"/><path d="M88 216v5c.83-2.031.83-2.97 0-5z" fill="#b8b8ca"/><path d="M161 216l1 1-1-1z" fill="#fff"/><path d="M162 216l1 1-1-1z" fill="#ccd"/><path d="M178.667 216.333c-.445.445.611.389.666.334.445-.445-.611-.389-.666-.334z" fill="#d1d1e8"/><path d="M329 216l1 1-1-1z" fill="#fff"/><path d="M393.667 216.333c-.445.445.611.389.666.334.445-.445-.611-.389-.666-.334z" fill="#e4e4f2"/><path d="M406.667 216.333c-.445.445.611.389.666.334.445-.445-.611-.389-.666-.334z" fill="#d5d5ea"/><path d="M483 216l1 1-1-1m9 0l1 1-1-1z" fill="#fff"/><path d="M92.333 217.667c-.055.055-.11 1.111.334.666.055-.055.11-1.111-.334-.666z" fill="#d0d0ec"/><path d="M158 217c1.248.685 1.549.749 3 1-1.248-.685-1.548-.749-3-1z" fill="#c3c3d9"/><path d="M171 217c1.248.685 1.548.749 3 1-1.248-.685-1.548-.749-3-1z" fill="#aaaac3"/><path d="M317.333 217.667c-.055.055-.111 1.111.334.666.055-.055.111-1.111-.334-.666z" fill="#9e9bb7"/><path d="M321 217l1 1-1-1z" fill="#bebed2"/><path d="M391.667 217.333c-.445.445.611.389.666.334.445-.445-.611-.389-.666-.334z" fill="#c1c5d5"/><path d="M400 217c1.506.683 2.315.826 4 1-1.506-.683-2.315-.826-4-1z" fill="#a2a2c2"/><path d="M429 217l1 1-1-1z" fill="#fff"/><path d="M483 217l1 1-1-1z" fill="#b1b1c8"/><path d="M487 217c1.033 4.338 1 8.561 1 13 1.53-3.647 2.156-10.242-1-13z" fill="#9c9cb6"/><path d="M155 218c1.248.685 1.549.749 3 1-1.248-.685-1.548-.749-3-1z" fill="#aaaac4"/><path d="M170 218l1 1-1-1z" fill="#cacadc"/><path d="M324 218v3c.696-1.554.696-1.446 0-3z" fill="#d3dbe9"/><path d="M328 218v3c.696-1.554.696-1.446 0-3z" fill="#bbc"/><path d="M388 218c1.248.685 1.548.749 3 1-1.248-.685-1.548-.749-3-1z" fill="#afafbd"/><path d="M395 219c1.769.779 3.036.912 5 1v-2c-1.878.176-3.199.438-5 1z" fill="#8987b6"/><path d="M400 218l1 1-1-1z" fill="#d3d3ff"/><path d="M487 218l1 1-1-1z" fill="#c6c6ff"/><path d="M146 219l1 1-1-1z" fill="#fff"/><path d="M147 219c1.506.683 2.315.826 4 1-1.506-.683-2.315-.826-4-1z" fill="#dbdbff"/><path d="M166.667 219.333c-.445.445.611.389.666.334.445-.445-.611-.389-.666-.334z" fill="#e6e6e6"/><path d="M168.667 219.333c-.445.445.611.389.666.334.445-.445-.611-.389-.666-.334z" fill="#fff"/><path d="M314 219l1 1-1-1z" fill="#aaf"/><path d="M320 219l1 1-1-1z" fill="#c8c8de"/><path d="M378 219c-1.98 1.884-3.31 2.469-6 3v2l18-2v-3c-4.096.084-7.95.79-12 0z" fill="#81808f"/><path d="M379.667 219.333c-.445.445.611.389.666.334.445-.445-.611-.389-.666-.334z" fill="#fff"/><path d="M381 219c1.248.685 1.548.749 3 1-1.248-.685-1.548-.749-3-1z" fill="#dcdce8"/><path d="M400 219c3.697 1.551 8.017 1 12 1-3.698-1.552-8.017-1-12-1z" fill="#9393a5"/><path d="M412.667 219.333c-.445.445.611.389.666.334.445-.445-.611-.389-.666-.334z" fill="#dfdfdf"/><path d="M414.667 219.333c-.445.445.611.389.666.334.445-.445-.611-.389-.666-.334M481 219l1 1-1-1m5 0l1 1-1-1z" fill="#fff"/><path d="M139 221c2.587 1.065 4.321.782 7 0-2.34-.566-4.571-.176-7 0z" fill="#a9a9bb"/><path d="M161 220l1 1-1-1z" fill="#d5d5ea"/><path d="M311 221c1.809.574 2.069.465 4 0-1.659-.406-2.242-.309-4 0z" fill="#a7a7ba"/><path d="M319 220l1 1-1-1z" fill="#c9c9e4"/><path d="M376.667 220.333c-.445.445.611.389.666.334.445-.445-.611-.389-.666-.334z" fill="#cbcbda"/><path d="M416 220c1.248.685 1.548.749 3 1-1.248-.685-1.548-.749-3-1z" fill="#c6c6d9"/><path d="M480 220v2c1.635-.545 1.455-.365 2-2h-2z" fill="#aaaac1"/><path d="M485 220l-1 2h2c0-1.853.3-1.35-1-2z" fill="#aaa"/><path d="M94 221l1 1-1-1z" fill="#d5d5d5"/><path d="M155 221c1.769.779 3.036.912 5 1-1.769-.779-3.036-.912-5-1z" fill="#cccce6"/><path d="M160 221l1 1-1-1z" fill="#fff"/><path d="M277 221c1.769.779 3.036.912 5 1-1.769-.779-3.036-.912-5-1z" fill="#a9a9bb"/><path d="M282 221l1 1-1-1z" fill="#fff"/><path d="M318 221l1 1-1-1z" fill="#d5d5d5"/><path d="M327.333 221.667c-.055.055-.111 1.111.334.666.055-.055.111-1.111-.334-.666z" fill="#a4a4c8"/><path d="M372 221c1.506.683 2.315.826 4 1-1.506-.683-2.315-.826-4-1z" fill="#afafbd"/><path d="M419 221c2.332.985 4.457.981 7 1-2.332-.985-4.457-.981-7-1z" fill="#ada9b8"/><path d="M456 221l1 1-1-1z" fill="#fff"/><path d="M89 222l1 1-1-1z" fill="#dbffff"/><path d="M95 222l1 1-1-1z" fill="#d3ccdb"/><path d="M96 222l1 1-1-1z" fill="#fff"/><path d="M133.667 222.333c-.445.445.611.389.666.334.445-.445-.611-.389-.666-.334z" fill="#e6e6e6"/><path d="M152 222c1.248.685 1.548.749 3 1-1.248-.685-1.548-.749-3-1z" fill="#d5d5ea"/><path d="M274 222l1 1-1-1z" fill="#fff"/><path d="M283.333 222.667c-.055.055-.111 1.111.334.666.055-.055.111-1.111-.334-.666z" fill="#a1a1bc"/><path d="M308 222l1 1-1-1z" fill="#fff"/><path d="M317 222l1 1-1-1z" fill="#ccccd9"/><path d="M323 222l1 1-1-1z" fill="#fff"/><path d="M384 222c2.613 1.098 5.165.993 8 1-2.613-1.098-5.164-.993-8-1z" fill="#dedee9"/><path d="M392.667 222.333c-.445.445.611.389.666.334.445-.445-.611-.389-.666-.334z" fill="#fff"/><path d="M394 222l1 1-1-1z" fill="#aaf"/><path d="M395 222l1 1-1-1m5.667.333c-.445.445.611.389.666.334.445-.445-.611-.389-.666-.334z" fill="#fff"/><path d="M402 222c2.89 1.213 5.874.998 9 1-2.89-1.213-5.874-.998-9-1z" fill="#ededed"/><path d="M411 222c3.211 1.958 6.284 2.384 10 2-3.121-1.401-6.589-1.73-10-2z" fill="#9b9ba7"/><path d="M429 222l1 1-1-1z" fill="#dbdbff"/><path d="M449 222c1.248.685 1.548.749 3 1-1.248-.685-1.548-.749-3-1m10 0l1 1-1-1z" fill="#e6e6e6"/><path d="M477.667 222.333c-.445.445.611.389.666.334.445-.445-.611-.389-.666-.334z" fill="#b6b6c2"/><path d="M90 223l1 1-1-1z" fill="#ccd"/><path d="M97.667 223.333c-.445.445.61.389.666.334.445-.445-.61-.389-.666-.334z" fill="#d5d5d5"/><path d="M130 223l1 1-1-1z" fill="#fff"/><path d="M131.667 223.333c-.445.445.611.389.666.334.445-.445-.611-.389-.666-.334z" fill="#c4c4df"/><path d="M145 223c1.248.685 1.549.749 3 1-1.248-.685-1.548-.749-3-1z" fill="#a6aac3"/><path d="M148 223l1 1-1-1z" fill="#fff"/><path d="M273.667 223.333c-.445.445.611.389.666.334.445-.445-.611-.389-.666-.334z" fill="#a6a3b9"/><path d="M306.667 223.333c-.445.445.611.389.666.334.445-.445-.611-.389-.666-.334z" fill="#c6c6d5"/><path d="M315 223l1 1-1-1z" fill="#ccc"/><path d="M323 223v7c1.059-2.534 1.059-4.466 0-7z" fill="#9c9cb3"/><path d="M337 223l1 1-1-1z" fill="#fff"/><path d="M338 223c1.506.683 2.315.826 4 1-1.506-.683-2.315-.826-4-1z" fill="#c7c7d2"/><path d="M376 223c1.769.779 3.036.912 5 1-1.769-.779-3.036-.912-5-1z" fill="#a9a9bd"/><path d="M430 223c1.248.685 1.548.749 3 1-1.248-.685-1.548-.749-3-1z" fill="#c3c7c7"/><path d="M444.667 223.333c-.445.445.611.389.666.334.445-.445-.611-.389-.666-.334z" fill="#fff"/><path d="M447.667 223.333c-.445.445.611.389.666.334.445-.445-.611-.389-.666-.334z" fill="#c6c6d3"/><path d="M460 223l1 1-1-1z" fill="#dbcedb"/><path d="M475 223l1 1-1-1z" fill="#fff"/><path d="M476 223l1 1-1-1z" fill="#c1c1cf"/><path d="M491 223v4c.71-1.76.71-2.24 0-4z" fill="#d1d1e8"/><path d="M91 224l1 1-1-1z" fill="#bfbfca"/><path d="M99 224c1.506.683 2.315.826 4 1-1.506-.683-2.315-.826-4-1z" fill="#a9a9c2"/><path d="M124 224c2.332.985 4.457.981 7 1-2.332-.985-4.457-.981-7-1z" fill="#a7abc0"/><path d="M143.667 224.333c-.445.445.611.389.666.334.445-.445-.611-.389-.666-.334z" fill="#ccccd6"/><path d="M246 224c1.506.683 2.315.826 4 1-1.506-.683-2.315-.826-4-1z" fill="#a9a9ac"/><path d="M261 224c1.506.683 2.315.826 4 1-1.506-.683-2.315-.826-4-1z" fill="#a7a9af"/><path d="M270 224c1.248.685 1.548.749 3 1-1.248-.685-1.548-.749-3-1z" fill="#aaaabe"/><path d="M278 224c1.139 1.015 1.612 1.309 3 2-.98-1.783-.908-1.594-3-2z" fill="#c3c3d2"/><path d="M284 224c1.506.683 2.315.826 4 1-1.506-.683-2.315-.826-4-1z" fill="#bfbfbf"/><path d="M288 224c5.469 2.295 13.099 1 19 1-5.469-2.295-13.099-1-19-1z" fill="#afafbf"/><path d="M314 224l1 1-1-1z" fill="#cacaca"/><path d="M335.667 224.333c-.445.445.611.389.666.334.445-.445-.611-.389-.666-.334z" fill="#adadc4"/><path d="M341 224c1.769.779 3.036.912 5 1-1.769-.779-3.036-.912-5-1z" fill="#aaaab9"/><path d="M372 224c1.769.779 3.036.912 5 1-1.769-.779-3.036-.912-5-1z" fill="#c3c3cd"/><path d="M419.667 224.333c-.445.445.611.389.666.334.445-.445-.611-.389-.666-.334z" fill="#fff"/><path d="M421.667 224.333c-.445.445.611.389.666.334.445-.445-.611-.389-.666-.334z" fill="#c2c2c9"/><path d="M434 224c3.163 1.327 6.586 1 10 1-3.163-1.327-6.586-1-10-1z" fill="#ababc1"/><path d="M461.667 224.333c-.445.445.611.389.666.334.445-.445-.611-.389-.666-.334z" fill="#bfbfd5"/><path d="M468 224c2.332.985 4.457.981 7 1-2.332-.985-4.457-.981-7-1z" fill="#aaa7be"/><path d="M482 224l1 1-1-1z" fill="#fff"/><path d="M503 224c3.163 1.327 6.586 1 10 1-3.163-1.327-6.586-1-10-1z" fill="#ababb5"/><path d="M92 225l1 1-1-1z" fill="#fff"/><path d="M93 225l1 1-1-1z" fill="#ccccd9"/><path d="M105.667 225.333c-.445.445.611.389.666.334.445-.445-.611-.389-.666-.334z" fill="#b5b5c9"/><path d="M107 225c1.248.685 1.548.749 3 1-1.248-.685-1.549-.749-3-1z" fill="#dde"/><path d="M110 225c1.248.685 1.548.749 3 1-1.248-.685-1.549-.749-3-1m7.667.333c-.445.445.611.389.666.334.445-.445-.611-.389-.666-.334z" fill="#fff"/><path d="M120.667 225.333c-.445.445.611.389.666.334.445-.445-.611-.389-.666-.334z" fill="#e4e4f2"/><path d="M137 225c1.919 1.144 2.732 1.174 5 1-1.769-.779-3.036-.912-5-1z" fill="#e4e4ff"/><path d="M178 225c4.469 1.875 10.191 1 15 1h30c-4.469-1.875-10.191-1-15-1h-30z" fill="#fff"/><path d="M223 225l1 1-1-1z" fill="#aaf"/><path d="M224 225c5.959 2.5 14.564 1 21 1-5.959-2.5-14.564-1-21-1z" fill="#e4e4f2"/><path d="M242 226c3.195 3.262 6.614 2.997 11 3-1.773-5.043-6.587-3.816-11-3z" fill="#80808c"/><path d="M251 225l1 1-1-1z" fill="#c9c9e4"/><path d="M252 225l1 1-1-1z" fill="#fff"/><path d="M260 225l1 1-1-1z" fill="#b3b3b3"/><path d="M265 225c1.248.685 1.548.749 3 1-1.248-.685-1.548-.749-3-1z" fill="#dbdbf3"/><path d="M276 225l1 1-1-1z" fill="#ebebeb"/><path d="M277 225l1 1-1-1z" fill="#aaf"/><path d="M310 225c1.506.683 2.315.826 4 1-1.506-.683-2.315-.826-4-1z" fill="#e1e1e1"/><path d="M333.333 225.667c-.055.055-.111 1.111.334.666.055-.055.111-1.111-.334-.666z" fill="#b9b9d3"/><path d="M347 225l1 1-1-1z" fill="#d1d1db"/><path d="M348.667 225.333c-.445.445.611.389.666.334.445-.445-.611-.389-.666-.334z" fill="#fff"/><path d="M423.667 225.333c-.445.445.611.389.666.334.445-.445-.611-.389-.666-.334z" fill="#d5d5ea"/><path d="M425 225v3c.696-1.554.696-1.446 0-3z" fill="#9c9eb5"/><path d="M453 225c1.769.779 3.036.912 5 1-1.769-.779-3.036-.912-5-1z" fill="#d5d5ea"/><path d="M480 225l1 1-1-1z" fill="#dfdfdf"/><path d="M500 225l1 1-1-1z" fill="#fff"/><path d="M501 225l1 1-1-1z" fill="#bfc6d9"/><path d="M517 225c2.052.874 3.747.953 6 1-2.052-.874-3.747-.953-6-1z" fill="#e2e2eb"/><path d="M113 226c1.506.683 2.315.826 4 1-1.506-.683-2.315-.826-4-1z" fill="#c6c6d5"/><path d="M129 226v2h4v-2h-4z" fill="#8f90ba"/><path d="M133 226c3.804 4.354 16.439 2 22 2-6.413-2.691-15.044-.709-22-2z" fill="#aaaac3"/><path d="M135 226c1.506.683 2.315.826 4 1-1.506-.683-2.315-.826-4-1z"/><path d="M155 226c4.974 2.087 11.638 1 17 1-4.974-2.087-11.638-1-17-1z" fill="#c2c2db"/><path d="M253 226l1 1-1-1z" fill="#fff"/><path d="M273.667 226.333c-.445.445.611.389.666.334.445-.445-.611-.389-.666-.334z" fill="#aeaeb9"/><path d="M275 226l1 1-1-1z" fill="#fff"/><path d="M281 226l1 1-1-1z" fill="#b9b0ca"/><path d="M304 227c2.044.774 2.845.592 5 0-1.846-.468-3.069-.301-5 0z" fill="#bfbfca"/><path d="M327 226c.545 1.635.365 1.455 2 2-.545-1.635-.365-1.455-2-2z" fill="#fff"/><path d="M331 226l1 1-1-1z" fill="#ccf"/><path d="M350 226l1 1-1-1z" fill="#d5d5d5"/><path d="M428 226v4c.71-1.76.71-2.241 0-4z" fill="#cacadf"/><path d="M430 226c1.506.683 2.315.826 4 1-1.506-.683-2.315-.826-4-1z" fill="#aca9b9"/><path d="M446 226c1.506.683 2.315.826 4 1-1.506-.683-2.315-.826-4-1z" fill="#adadbd"/><path d="M458 226l1 1-1-1z" fill="#b6b6c2"/><path d="M477 226l1 1-1-1z" fill="#b9b9cb"/><path d="M495 227c2.044.774 2.845.592 5 0-1.846-.468-3.069-.301-5 0z" fill="#afafc7"/><path d="M523 226c1.248.685 1.548.749 3 1-1.248-.685-1.548-.749-3-1z" fill="#c8c8d3"/><path d="M96 227c1.248.685 1.548.749 3 1-1.248-.685-1.549-.749-3-1z" fill="#c6c6e3"/><path d="M253.333 227.667c-.055.055-.111 1.111.334.666.055-.055.111-1.111-.334-.666z" fill="#aaf"/><path d="M261 227l1 1-1-1z" fill="#b2b2bc"/><path d="M272 227l1 1-1-1z" fill="#aeb2c2"/><path d="M282.667 227.333c-.445.445.611.389.666.334.445-.445-.611-.389-.666-.334z" fill="#9f9fac"/><path d="M327 227l1 1-1-1z"/><path d="M329 227c1.248.685 1.549.749 3 1-1.248-.685-1.548-.749-3-1z" fill="#afafc1"/><path d="M338 227l1 1-1-1z" fill="#cccce6"/><path d="M340.667 227.333c-.445.445.611.389.666.334.445-.445-.611-.389-.666-.334z" fill="#c1c1cf"/><path d="M351.667 227.333c-.445.445.611.389.666.334.445-.445-.611-.389-.666-.334z" fill="#aaaab8"/><path d="M353 227l1 1-1-1m71 0l1 1-1-1z" fill="#fff"/><path d="M434 227c3.697 1.551 8.017 1 12 1-3.698-1.552-8.017-1-12-1z" fill="#c6c6d9"/><path d="M446 227l1 1-1-1z" fill="#fff"/><path d="M459 227l1 1-1-1z" fill="#ccc"/><path d="M470 227c2.332.985 4.457.981 7 1-2.332-.985-4.457-.981-7-1z" fill="#c5c5d1"/><path d="M505 227c1.769.779 3.036.912 5 1-1.769-.779-3.036-.912-5-1z" fill="#c6c6d9"/><path d="M526 227c2.052.874 3.747.953 6 1-2.052-.874-3.747-.953-6-1z" fill="#aaaaba"/><path d="M532 227c2.331.985 4.457.981 7 1-2.332-.985-4.457-.981-7-1z" fill="#fff"/><path d="M99 228c1.223 1.195 1.42 1.316 3 2-.98-1.783-.908-1.594-3-2z" fill="#c8c8ed"/><path d="M262.667 228.333c-.445.445.611.389.666.334.445-.445-.611-.389-.666-.334z" fill="#dbdbf3"/><path d="M270 228c1.248.685 1.548.749 3 1-1.248-.685-1.548-.749-3-1z" fill="#dfdfdf"/><path d="M283 228c3.163 1.327 6.586 1 10 1-3.163-1.327-6.586-1-10-1z" fill="#d9d9e6"/><path d="M293.667 228.333c-.445.445.611.389.666.334.445-.445-.611-.389-.666-.334z" fill="#fff"/><path d="M295 228c2.89 1.213 5.874.998 9 1-2.89-1.213-5.874-.998-9-1z" fill="#e6e6e6"/><path d="M335.667 228.333c-.445.445.611.389.666.334.445-.445-.611-.389-.666-.334z" fill="#aaf"/><path d="M342.667 228.333c-.445.445.611.389.666.334.445-.445-.611-.389-.666-.334z" fill="#fff"/><path d="M344 228c1.248.685 1.548.749 3 1-1.248-.685-1.548-.749-3-1z" fill="#e4e4f2"/><path d="M353.333 228.667c-.055.055-.111 1.111.334.666.055-.055.111-1.111-.334-.666z" fill="#d5d5ff"/><path d="M424 228v4c.71-1.76.71-2.241 0-4z" fill="#b6b6d0"/><path d="M460 228c2.89 1.213 5.874.998 9 1-2.89-1.213-5.874-.998-9-1z" fill="#dfdfdf"/><path d="M501 228c1.248.685 1.548.749 3 1-1.248-.685-1.548-.749-3-1z" fill="#d5d5ea"/><path d="M510 228c2.613 1.098 5.164.993 8 1-2.613-1.098-5.165-.993-8-1z" fill="#dbdbed"/><path d="M533 229c3.461 1.663 7.185 1.921 11 2v-3l-11 1z" fill="#8080aa"/><path d="M544 228v4c.71-1.759.71-2.241 0-4z" fill="#bbb5c1"/><path d="M175 229c1.506.683 2.315.826 4 1-1.506-.683-2.315-.826-4-1z" fill="#a5a8c3"/><path d="M180 229c5.707 2.395 13.846 1 20 1h42c-5.707-2.395-13.846-1-20-1h-42z" fill="#b1b1c8"/><path d="M244.667 229.333c-.445.445.611.389.666.334.445-.445-.611-.389-.666-.334z" fill="#aaaac6"/><path d="M246 229c1.611 6.991-.686 13.916 1 21h2c1.623-6.818 1-14.029 1-21h-4z" fill="#8080ac"/><path d="M250 229v13c1.591-3.791 1.591-9.209 0-13z" fill="#b8b8cc"/><path d="M264 229l1 1-1-1z" fill="#fff"/><path d="M265 229c1.248.685 1.548.749 3 1-1.248-.685-1.548-.749-3-1z" fill="#b1b1ba"/><path d="M268 229l1 1-1-1z" fill="#ccf"/><path d="M333.667 229.333c-.445.445.611.389.666.334.445-.445-.611-.389-.666-.334z" fill="#aaa"/><path d="M349 229c1.506.683 2.315.826 4 1-1.506-.683-2.315-.826-4-1z" fill="#aaaab5"/><path d="M425 229l-2 11c-20.354 0-40.71-.3-61 1.09-13.042.893-25.898 2.91-39 2.91v3c9.526-.005 18.567-2.547 28-2.961 24.009-1.053 48.01-1.208 72-2.039v12c4.618-2.726 3.095-7.266 3-12 35.617.098 71.319 2 107 2-4.614-2.453-9.897-2-15-2-7.419 0-14.613-.36-22-.039-14.047.609-28.968-.09-43-1.051-9.08-.621-17.878-1.959-27-.91.171-3.981 1.443-7.646-1-11z" fill="#81819f"/><path d="M500 229l1 1-1-1z" fill="#fff"/><path d="M521 229c1.769.779 3.036.912 5 1-1.769-.779-3.036-.912-5-1z" fill="#a7a7b4"/><path d="M93 230c2.332.985 4.457.981 7 1-2.332-.985-4.457-.981-7-1z" fill="#b0b0c7"/><path d="M113 230c4.469 1.875 10.191 1 15 1h31c-4.469-1.875-10.191-1-15-1h-31z" fill="#c1c6d7"/><path d="M159.667 230.333c-.445.445.611.389.666.334.445-.445-.611-.389-.666-.334M162 230c1.506.683 2.315.826 4 1-1.506-.683-2.315-.826-4-1m7 0l1 1-1-1m3.667.333c-.445.445.611.389.666.334.445-.445-.611-.389-.666-.334z" fill="#fff"/><path d="M246 230v5c.83-2.031.83-2.97 0-5z" fill="#d6d6e5"/><path d="M323 230l1 1-1-1z" fill="#c9d7e4"/><path d="M331.667 230.333c-.445.445.611.389.666.334.445-.445-.611-.389-.666-.334z" fill="#bfbfca"/><path d="M427 230v4c.71-1.76.71-2.241 0-4z" fill="#b9b6cd"/><path d="M497.667 230.333c-.445.445.611.389.666.334.445-.445-.611-.389-.666-.334z" fill="#d5d5d5"/><path d="M527.667 230.333c-.445.445.611.389.666.334.445-.445-.611-.389-.666-.334z" fill="#c4c7cb"/><path d="M532 230v2h12c-3.71-1.666-7.949-1.916-12-2z" fill="#8e8eba"/><path d="M87 231c1.248.685 1.548.749 3 1-1.248-.685-1.549-.749-3-1z" fill="#e6e6e6"/><path d="M107 231c1.769.779 3.036.912 5 1-1.769-.779-3.036-.912-5-1z" fill="#d5d5ea"/><path d="M330.667 231.333c-.445.445.611.389.666.334.445-.445-.611-.389-.666-.334z" fill="#fff"/><path d="M489.667 231.333c-.445.445.611.389.666.334.445-.445-.611-.389-.666-.334z" fill="#d9d9f2"/><path d="M493 231c1.506.683 2.315.826 4 1-1.506-.683-2.315-.826-4-1z" fill="#d9d9e6"/><path d="M529.667 231.333c-.445.445.611.389.666.334.445-.445-.611-.389-.666-.334z" fill="#fff"/><path d="M531 231l1 1-1-1z" fill="#bfbfd5"/><path d="M80 232l1 1-1-1z" fill="#fff"/><path d="M81 232c2.332.985 4.457.981 7 1-2.332-.985-4.457-.981-7-1z" fill="#c3c9d7"/><path d="M100 232c1.248.685 1.548.749 3 1-1.248-.685-1.548-.749-3-1z" fill="#a7a7b9"/><path d="M325 232c1.248.685 1.548.749 3 1-1.248-.685-1.548-.749-3-1z" fill="#ababb4"/><path d="M423 232v5c.83-2.03.83-2.97 0-5z" fill="#dadae9"/><path d="M77 233c1.248.685 1.548.749 3 1-1.248-.685-1.549-.749-3-1z" fill="#a9adba"/><path d="M94 233c1.769.779 3.036.912 5 1-1.769-.779-3.036-.912-5-1z" fill="#c5c5d9"/><path d="M99 233l1 1-1-1z" fill="#fff"/><path d="M69 234l1 1-1-1z" fill="#bfbfff"/><path d="M70 234c1.248.685 1.548.749 3 1-1.248-.685-1.549-.749-3-1z" fill="#fff"/><path d="M91.667 234.333c-.445.445.61.389.666.334.445-.445-.61-.389-.666-.334z" fill="#d5d5ea"/><path d="M426 234v6c.951-2.285.951-3.715 0-6z" fill="#9c9eb1"/><path d="M427 234l1 1-1-1z" fill="#fff"/><path d="M64 235l1 1-1-1z" fill="#aaf"/><path d="M65 235c1.506.683 2.315.826 4 1-1.506-.683-2.315-.826-4-1z" fill="#cbcbdc"/><path d="M85 235c1.506.683 2.315.826 4 1-1.506-.683-2.315-.826-4-1z" fill="#a6a6be"/><path d="M246.333 235.667c-.055.055-.111 1.111.334.666.055-.055.111-1.111-.334-.666z" fill="#b1b1d0"/><path d="M60 236c1.506.683 2.315.826 4 1-1.506-.683-2.315-.826-4-1z" fill="#acacc8"/><path d="M80 236c1.506.683 2.315.826 4 1-1.506-.683-2.315-.826-4-1z" fill="#c3c3d2"/><path d="M48 238c3.35 1.403 6.521.828 10 0-3.16-.972-6.667-.068-10 0z" fill="#ccd"/><path d="M77 237c1.248.685 1.548.749 3 1-1.248-.685-1.549-.749-3-1z" fill="#fff"/><path d="M69.667 238.333c-.445.445.61.389.666.334.445-.445-.61-.389-.666-.334z" fill="#a6a6be"/><path d="M71 238l1 1-1-1z" fill="#dbdbff"/><path d="M246 238l1 1-1-1z" fill="#bcb9d6"/><path d="M44 239c1.506.683 2.315.826 4 1-1.506-.683-2.315-.826-4-1z" fill="#b0b0c1"/><path d="M62 239c2.052.874 3.747.953 6 1-2.052-.874-3.747-.953-6-1z" fill="#bfbfdf"/><path d="M382 239c2.332.985 4.457.981 7 1-2.332-.985-4.457-.981-7-1z" fill="#fff"/><path d="M389 239c1.248.685 1.548.749 3 1-1.248-.685-1.548-.749-3-1z" fill="#bfbfbf"/><path d="M393 239c8.128 3.411 21.186 1 30 1-8.128-3.411-21.186-1-30-1z" fill="#adafc1"/><path d="M427.667 239.333c-.445.445.611.389.666.334.445-.445-.611-.389-.666-.334z" fill="#fff"/><path d="M430 239c1.506.683 2.315.826 4 1-1.506-.683-2.315-.826-4-1z" fill="#bfbfbf"/><path d="M437 239c1.506.683 2.315.826 4 1-1.506-.683-2.315-.826-4-1z" fill="#aaaad5"/><path d="M441 239c1.506.683 2.315.826 4 1-1.506-.683-2.315-.826-4-1z" fill="#bfbfbf"/><path d="M445 239l1 1-1-1z" fill="#fff"/><path d="M24 240l1 1-1-1z" fill="#c6c6d0"/><path d="M28.667 240.333c-.445.445.61.389.666.334.445-.445-.61-.389-.666-.334M34 240c1.506.683 2.315.826 4 1-1.506-.683-2.315-.826-4-1z" fill="#fff"/><path d="M58 240l1 1-1-1z" fill="#b0b0c6"/><path d="M59 240c1.248.685 1.548.749 3 1-1.248-.685-1.548-.749-3-1z" fill="#d5d5ea"/><path d="M359 240c1.506.683 2.315.826 4 1-1.506-.683-2.315-.826-4-1z" fill="#fff"/><path d="M363 240c2.332.985 4.457.981 7 1-2.332-.985-4.457-.981-7-1z" fill="#e6e6e6"/><path d="M370 240c3.697 1.552 8.017 1 12 1-3.698-1.552-8.017-1-12-1z" fill="#9494b2"/><path d="M449 240c7.409 3.109 18.975 1 27 1-7.409-3.109-18.975-1-27-1z" fill="#9898b0"/><path d="M476 240c2.332.985 4.457.981 7 1-2.332-.985-4.457-.981-7-1z" fill="#d1d1ff"/><path d="M483 240c3.959 1.661 8.737 1 13 1-3.959-1.661-8.737-1-13-1z" fill="#e6e6e6"/><path d="M496 240c1.506.683 2.315.826 4 1-1.506-.683-2.315-.826-4-1z" fill="#d5d5ff"/><path d="M23.333 241.667c-.055.055-.11 1.111.334.666.055-.055.11-1.111-.334-.666z" fill="#bfbfbf"/><path d="M30 241c1.769.779 3.036.912 5 1-1.77-.779-3.036-.912-5-1z" fill="#c3c3da"/><path d="M52 241c1.769.779 3.036.912 5 1-1.769-.779-3.036-.912-5-1z" fill="#a3a3be"/><path d="M347 241c3.697 1.552 8.017 1 12 1-3.698-1.552-8.017-1-12-1z" fill="#cacadc"/><path d="M477 241c6.445 2.704 16.032 1 23 1-6.445-2.704-16.032-1-23-1z" fill="#8b8ba2"/><path d="M500 241l1 1-1-1z" fill="#babad0"/><path d="M505 241c6.687 2.806 16.767 1 24 1-6.687-2.806-16.767-1-24-1z" fill="#cacad1"/><path d="M555 241l1 1-1-1z" fill="#fff"/><path d="M556.667 241.333c-.445.445.611.389.666.334.445-.445-.611-.389-.666-.334z" fill="#c8c8d1"/><path d="M46 242c2.052.874 3.747.953 6 1-2.052-.874-3.747-.953-6-1z" fill="#ccc"/><path d="M250 242v4c.71-1.76.71-2.241 0-4z" fill="#fff"/><path d="M337 242c2.89 1.213 5.874.998 9 1-2.89-1.213-5.874-.998-9-1z" fill="#b2b2c1"/><path d="M386 242c1.248.685 1.548.749 3 1-1.248-.685-1.548-.749-3-1z" fill="#bfbfd3"/><path d="M390.667 242.333c-.445.445.611.389.666.334.445-.445-.611-.389-.666-.334z" fill="#a0a3b5"/><path d="M399 242l1 1-1-1z" fill="#b5b5d0"/><path d="M405 242c3.432 1.44 7.3 1 11 1-3.432-1.44-7.3-1-11-1z" fill="#c6c6d5"/><path d="M417 242c2.052.874 3.747.953 6 1-2.052-.874-3.747-.953-6-1z" fill="#c5c5d5"/><path d="M426 242v5c.83-2.03.83-2.97 0-5z" fill="#aaa"/><path d="M427 242c2.613 1.098 5.164.993 8 1-2.613-1.098-5.165-.993-8-1z" fill="#c2c2d1"/><path d="M441.667 242.333c-.445.445.611.389.666.334.445-.445-.611-.389-.666-.334z" fill="#a4a4b5"/><path d="M444.667 242.333c-.445.445.611.389.666.334.445-.445-.611-.389-.666-.334z" fill="#c1c1cf"/><path d="M447.667 242.333c-.445.445.611.389.666.334.445-.445-.611-.389-.666-.334z" fill="#9fa2b5"/><path d="M449.667 242.333c-.445.445.611.389.666.334.445-.445-.611-.389-.666-.334z" fill="#c3c5d6"/><path d="M529 242c1.506.683 2.315.826 4 1-1.506-.683-2.315-.826-4-1z" fill="#adadc3"/><path d="M555 242l1 5c1.255-1.75 1.614-2.857 2-5h-3z" fill="#7f7f85"/><path d="M558 242v3c.696-1.554.696-1.446 0-3z" fill="#9f9fa3"/><path d="M43 243c1.506.683 2.315.826 4 1-1.506-.683-2.315-.826-4-1z" fill="#d1d1e8"/><path d="M323 243c2.613 1.098 5.165.993 8 1-2.613-1.098-5.164-.993-8-1z" fill="#dbdbf3"/><path d="M331 243c2.332.985 4.457.981 7 1-2.332-.985-4.457-.981-7-1z" fill="#9996b0"/><path d="M374 243c3.432 1.44 7.3 1 11 1-3.432-1.44-7.3-1-11-1z" fill="#dbdbf3"/><path d="M451.667 243.333c-.445.445.611.389.666.334.445-.445-.611-.389-.666-.334z" fill="#e3e3ff"/><path d="M453 243l1 1-1-1z" fill="#aaf"/><path d="M454 243c4.974 2.087 11.638 1 17 1-4.974-2.087-11.638-1-17-1z" fill="#dcdcf3"/><path d="M471 243c7.409 3.109 18.975 1 27 1-7.409-3.109-18.975-1-27-1z" fill="#9292a9"/><path d="M526 244c3.432 1.44 7.3 1 11 1v-2l-11 1z" fill="#a8a8b6"/><path d="M540 243v2h2v-2h-2z" fill="#a9a9a9"/><path d="M542.333 243.667c-.055.055-.111 1.111.334.666.055-.055.111-1.111-.334-.666z" fill="#c6c6c6"/><path d="M24.667 244.333c-.445.445.61.389.666.334.445-.445-.61-.389-.666-.334z" fill="#aba8b6"/><path d="M29 246c3.04-.724 5.878-.974 9-1-3.09-1.296-6.692-1.641-9 1m317-2c3.432 1.44 7.3 1 11 1-3.432-1.44-7.3-1-11-1z" fill="#a7a7bd"/><path d="M498 244c1.769.779 3.036.912 5 1-1.769-.779-3.036-.912-5-1z" fill="#aaa"/><path d="M503 244c1.248.685 1.548.749 3 1-1.248-.685-1.548-.749-3-1z" fill="#fff"/><path d="M513 244c1.506.683 2.315.826 4 1-1.506-.683-2.315-.826-4-1z" fill="#aaaab3"/><path d="M26 245c1.248.685 1.549.749 3 1-1.248-.685-1.548-.749-3-1z" fill="#ccc"/><path d="M322 245l1 1-1-1z" fill="#fff"/><path d="M340 245c2.052.874 3.747.953 6 1-2.052-.874-3.747-.953-6-1z" fill="#c6c6d9"/><path d="M555.333 245.667c-.055.055-.111 1.111.334.666.055-.055.111-1.111-.334-.666z" fill="#dbdbdb"/><path d="M557.333 245.667c-.055.055-.111 1.111.334.666.055-.055.111-1.111-.334-.666z" fill="#ccd"/><path d="M332 246l1 1-1-1z" fill="#cecede"/><path d="M334.667 246.333c-.445.445.611.389.666.334.445-.445-.611-.389-.666-.334z" fill="#e6e6e6"/><path d="M336.667 246.333c-.445.445.611.389.666.334.445-.445-.611-.389-.666-.334z" fill="#fff"/><path d="M338 246l1 1-1-1z" fill="#bfbfbf"/><path d="M339 246l1 1-1-1m-16 1l1 1-1-1z" fill="#fff"/><path d="M324 247c2.052.874 3.747.953 6 1-2.052-.874-3.747-.953-6-1z" fill="#a7a7b3"/><path d="M246.333 248.667c-.055.055-.111 1.111.334.666.055-.055.111-1.111-.334-.666z" fill="#c6c6e3"/><path d="M249 248l1 1-1-1z" fill="#cbcbdc"/><path d="M422 248v6c.951-2.285.951-3.715 0-6z" fill="#9f9dad"/><path d="M426 248l1 1-1-1z" fill="#b5b5bf"/><path d="M427.333 249.667c-.055.055-.111 1.111.334.666.055-.055.111-1.111-.334-.666z" fill="#d1d1d1"/><path d="M426.333 251.667c-.055.055-.111 1.111.334.666.055-.055.111-1.111-.334-.666z" fill="#aaa"/><path d="M425.333 253.667c-.055.055-.111 1.111.334.666.055-.055.111-1.111-.334-.666z" fill="#fff"/><path d="M422 254c1.248.685 1.549.749 3 1-1.248-.685-1.548-.749-3-1z" fill="#c5c5ce"/></svg>