<?xml version="1.0" standalone="yes"?>
<svg xmlns="http://www.w3.org/2000/svg" width="576" height="433">
<path style="fill:#000000; stroke:none;" d="M0 0L0 433L576 433L576 0L0 0z"/>
<path style="fill:#b1b1b7; stroke:none;" d="M432 171C431.014 172.479 431 172.203 431 174C432.289 172.557 432.401 172.766 432 171z"/>
<path style="fill:#ffffff; stroke:none;" d="M433.667 171.333C433.222 171.778 434.278 171.722 434.333 171.667C434.778 171.222 433.722 171.278 433.667 171.333z"/>
<path style="fill:#82819c; stroke:none;" d="M433 172C428.037 177.671 422.919 184.078 415.996 187.37C409.106 190.646 395.404 193.005 393 201C395.709 201.648 398.216 201.942 401 202L399 198C409.286 195.351 421.212 189.147 429 182C429 187.085 428.446 191.95 428.09 197C427.894 199.772 428.385 203.019 426.683 205.428C424.528 208.478 419.324 209.462 415.985 210.555C407.322 213.391 395.256 213.726 389 221C395.697 222.98 403.073 221.736 410 222.039C415.514 222.281 420.624 224.09 426 225C425.879 227.661 425.851 228.471 428 230L428 226C433.037 226.216 437.927 227.256 443 226.91C446.932 226.642 451.052 225.237 455 225.584C457.479 225.802 459.588 227.209 462 227.701C465.625 228.442 469.404 227.648 473 227.13C480.798 226.005 487.821 221.828 486 213C480.928 221.088 475.255 226.255 465 224.856C460.718 224.272 457.514 221.68 453 222.329C446.502 223.264 437.437 227.704 431.318 223.062C429.083 221.366 429.009 218.573 429.009 216C429.009 205.985 440.915 202.086 449 199L448 196C441.783 198.275 435.874 201.921 430 205C431.47 197.084 430.929 188.933 432.224 181C432.792 177.52 434.842 175.215 433 172z"/>
<path style="fill:#bababa; stroke:none;" d="M434 172L435 173L434 172z"/>
<path style="fill:#9e9ea7; stroke:none;" d="M430 174L429 176L431 176C431 174.147 431.3 174.65 430 174z"/>
<path style="fill:#ffffff; stroke:none;" d="M434.333 175.667C434.278 175.722 434.222 176.778 434.667 176.333C434.722 176.278 434.778 175.222 434.333 175.667z"/>
<path style="fill:#b7b7be; stroke:none;" d="M433 176L433 179C433.696 177.446 433.696 177.554 433 176z"/>
<path style="fill:#ffffff; stroke:none;" d="M427 177L428 178L427 177z"/>
<path style="fill:#9e9ea7; stroke:none;" d="M432 178L432 181C432.696 179.446 432.696 179.554 432 178z"/>
<path style="fill:#c9c9e4; stroke:none;" d="M426 179L427 180L426 179z"/>
<path style="fill:#dbdbff; stroke:none;" d="M183 180C186.163 181.327 189.586 181 193 181C189.837 179.673 186.414 180 183 180z"/>
<path style="fill:#aaaaff; stroke:none;" d="M193 180L194 181L193 180z"/>
<path style="fill:#ffffff; stroke:none;" d="M195 180L196 181L195 180z"/>
<path style="fill:#ddddee; stroke:none;" d="M425 180L426 181L425 180z"/>
<path style="fill:#ffffff; stroke:none;" d="M174 181L175 182L174 181z"/>
<path style="fill:#c8c8db; stroke:none;" d="M175 181C176.506 181.683 177.315 181.826 179 182C177.494 181.317 176.685 181.174 175 181z"/>
<path style="fill:#9b9fb8; stroke:none;" d="M179 181C180.769 181.779 182.036 181.912 184 182C182.231 181.221 180.964 181.088 179 181z"/>
<path style="fill:#8082aa; stroke:none;" d="M97 205C93.8346 208.974 87.5957 215.278 93 220C93.1899 211.507 100.395 209.72 106.335 205.629C115.631 199.227 127.259 196.128 138 192.796C145.655 190.421 153.902 187.868 162 188C165.384 185.436 168.833 186.464 172.83 185.741C181.176 184.231 191.519 182.563 200 184.488C203.518 185.287 206.739 187.518 210 189L213 185C194.575 178.283 174.56 181.838 156 185.536C147.363 187.257 138.326 188.95 130 191.939C124.509 193.911 118.575 195.586 113.285 198.027C108.219 200.366 102.558 204.428 97 205z"/>
<path style="fill:#bfbfd9; stroke:none;" d="M196 181C198.052 181.874 199.747 181.953 202 182C199.948 181.126 198.253 181.047 196 181z"/>
<path style="fill:#ffffff; stroke:none;" d="M423 181L424 182L423 181z"/>
<path style="fill:#c1c1c9; stroke:none;" d="M424 181L425 182L424 181z"/>
<path style="fill:#ffffff; stroke:none;" d="M168 182L169 183L168 182z"/>
<path style="fill:#aaaac8; stroke:none;" d="M169 182C171.052 182.874 172.747 182.953 175 183C172.948 182.126 171.253 182.047 169 182z"/>
<path style="fill:#b3b3cc; stroke:none;" d="M202 182C203.769 182.779 205.036 182.912 207 183C205.231 182.221 203.964 182.088 202 182z"/>
<path style="fill:#b7b7d8; stroke:none;" d="M428 182L429 183L428 182z"/>
<path style="fill:#dbdbff; stroke:none;" d="M161.667 183.333C161.222 183.778 162.278 183.722 162.333 183.667C162.778 183.222 161.722 183.278 161.667 183.333z"/>
<path style="fill:#aaaaff; stroke:none;" d="M209.667 183.333C209.222 183.778 210.278 183.722 210.333 183.667C210.778 183.222 209.722 183.278 209.667 183.333z"/>
<path style="fill:#9f9faf; stroke:none;" d="M421.333 183.667C421.278 183.722 421.222 184.778 421.667 184.333C421.722 184.278 421.778 183.222 421.333 183.667z"/>
<path style="fill:#bfbfff; stroke:none;" d="M427 183L428 184L427 183z"/>
<path style="fill:#bfbfdf; stroke:none;" d="M157 184C158.506 184.683 159.315 184.826 161 185C159.494 184.317 158.685 184.174 157 184z"/>
<path style="fill:#a9acc1; stroke:none;" d="M175 184C178.163 185.327 181.586 185 185 185C181.837 183.673 178.414 184 175 184z"/>
<path style="fill:#ffffff; stroke:none;" d="M185 184L186 185L185 184z"/>
<path style="fill:#000000; stroke:none;" d="M216 196L216 194C212.014 190.99 207.772 187.61 202.961 186.055C192.929 182.812 181.054 185.39 171 186.791C153.809 189.186 137.336 192.623 121 198.939C113.477 201.848 105.746 205.25 99.1705 209.998C96.6977 211.784 93.2766 214.573 93.2955 217.934C93.3153 221.444 97.1997 222.896 100.001 223.779C107.607 226.177 116.246 225.781 124 224.576C140.57 221.999 156.811 217.619 172.999 213.552C188.441 209.673 202.808 205.277 216 196z"/>
<path style="fill:#ffffff; stroke:none;" d="M187.667 184.333C187.222 184.778 188.278 184.722 188.333 184.667C188.778 184.222 187.722 184.278 187.667 184.333z"/>
<path style="fill:#b5b5bf; stroke:none;" d="M189.667 184.333C189.222 184.778 190.278 184.722 190.333 184.667C190.778 184.222 189.722 184.278 189.667 184.333z"/>
<path style="fill:#a7aac6; stroke:none;" d="M194 184C196.613 185.098 199.165 184.993 202 185C199.387 183.902 196.835 184.007 194 184z"/>
<path style="fill:#bfbfdf; stroke:none;" d="M211 184L212 185L211 184z"/>
<path style="fill:#ffffff; stroke:none;" d="M212 184L213 185L212 184z"/>
<path style="fill:#d5d5ea; stroke:none;" d="M420 184L421 185L420 184z"/>
<path style="fill:#a6a9c9; stroke:none;" d="M153 185C154.506 185.683 155.315 185.826 157 186C155.494 185.317 154.685 185.174 153 185z"/>
<path style="fill:#dbdbff; stroke:none;" d="M175 185L176 186L175 185z"/>
<path style="fill:#c4c4d8; stroke:none;" d="M191 185C192.248 185.685 192.549 185.749 194 186C192.752 185.315 192.452 185.251 191 185z"/>
<path style="fill:#cfcfea; stroke:none;" d="M201.667 185.333C201.222 185.778 202.278 185.722 202.333 185.667C202.778 185.222 201.722 185.278 201.667 185.333z"/>
<path style="fill:#c3c3d2; stroke:none;" d="M213 185L214 186L213 185z"/>
<path style="fill:#acacbc; stroke:none;" d="M418 185C419.248 185.685 419.548 185.749 421 186C419.752 185.315 419.452 185.251 418 185z"/>
<path style="fill:#e3e3ff; stroke:none;" d="M425 185L426 186L425 185z"/>
<path style="fill:#aaaaff; stroke:none;" d="M147 186L148 187L147 186z"/>
<path style="fill:#d5d5f1; stroke:none;" d="M148.667 186.333C148.222 186.778 149.278 186.722 149.333 186.667C149.778 186.222 148.722 186.278 148.667 186.333z"/>
<path style="fill:#9a9ab5; stroke:none;" d="M162 186C163.769 186.779 165.036 186.912 167 187C165.231 186.221 163.964 186.088 162 186z"/>
<path style="fill:#dfdfdf; stroke:none;" d="M167.667 186.333C167.222 186.778 168.278 186.722 168.333 186.667C168.778 186.222 167.722 186.278 167.667 186.333z"/>
<path style="fill:#aaaaff; stroke:none;" d="M169.667 186.333C169.222 186.778 170.278 186.722 170.333 186.667C170.778 186.222 169.722 186.278 169.667 186.333z"/>
<path style="fill:#ffffff; stroke:none;" d="M171 186C172.248 186.685 172.548 186.749 174 187C172.752 186.315 172.452 186.251 171 186z"/>
<path style="fill:#dbdbff; stroke:none;" d="M204.667 186.333C204.222 186.778 205.278 186.722 205.333 186.667C205.778 186.222 204.722 186.278 204.667 186.333z"/>
<path style="fill:#80808f; stroke:none;" d="M210 189L216 194L219 192C216.897 188.077 213.399 184.363 210 189z"/>
<path style="fill:#cccccc; stroke:none;" d="M215 186L216 187L215 186z"/>
<path style="fill:#81819b; stroke:none;" d="M327 186C326.438 191.033 327.297 195.978 326.177 201C323.602 212.554 314.468 223.942 302 224.942C297.401 225.311 291.558 225.682 287.039 224.701C284.21 224.088 281.995 222.136 279 222.113C276.019 222.09 273.723 223.868 270.961 224.66C267.685 225.6 264.342 225.195 261 225C265.611 232.894 274.628 225.757 281 224C283.66 228.554 288.184 227.998 293 228C300.522 228.003 308.254 227.543 314.996 223.722C318.322 221.837 320.637 218.785 324 217C324.068 215.125 324.398 213.792 325 212C325.695 218.488 324 225.387 324 232C329.625 231.834 333.631 228.402 339 227.7C343.529 227.108 348.409 228.905 353 229C348.693 225.159 338.166 221.533 334 227L332 226C330.212 227.422 329.294 227.697 327 228C327.091 223.736 328.51 220.142 329.11 216C330.567 205.937 330.456 196.002 330 186L327 186z"/>
<path style="fill:#9c98a7; stroke:none;" d="M330 186L330 192C330.951 189.715 330.951 188.285 330 186z"/>
<path style="fill:#c2c7d1; stroke:none;" d="M416.667 186.333C416.222 186.778 417.278 186.722 417.333 186.667C417.778 186.222 416.722 186.278 416.667 186.333z"/>
<path style="fill:#ffffff; stroke:none;" d="M423.667 186.333C423.222 186.778 424.278 186.722 424.333 186.667C424.778 186.222 423.722 186.278 423.667 186.333z"/>
<path style="fill:#a5a5bb; stroke:none;" d="M428 186L428 194C429.161 191.23 429.161 188.77 428 186z"/>
<path style="fill:#ffffff; stroke:none;" d="M144 187L145 188L144 187z"/>
<path style="fill:#c8c8db; stroke:none;" d="M145.667 187.333C145.222 187.778 146.278 187.722 146.333 187.667C146.778 187.222 145.722 187.278 145.667 187.333z"/>
<path style="fill:#a4a4cb; stroke:none;" d="M158.667 187.333C158.222 187.778 159.278 187.722 159.333 187.667C159.778 187.222 158.722 187.278 158.667 187.333z"/>
<path style="fill:#d1d1d1; stroke:none;" d="M216 187L217 188L216 187z"/>
<path style="fill:#cacad3; stroke:none;" d="M326 187L327 188L326 187z"/>
<path style="fill:#ffffff; stroke:none;" d="M414 187L415 188L414 187z"/>
<path style="fill:#bfbfcc; stroke:none;" d="M415 187L416 188L415 187z"/>
<path style="fill:#dbdbff; stroke:none;" d="M422 187L423 188L422 187z"/>
<path style="fill:#ffffff; stroke:none;" d="M140 188L141 189L140 188z"/>
<path style="fill:#aaaacc; stroke:none;" d="M141 188C142.506 188.683 143.315 188.826 145 189C143.494 188.317 142.685 188.174 141 188z"/>
<path style="fill:#c4c4eb; stroke:none;" d="M156.667 188.333C156.222 188.778 157.278 188.722 157.333 188.667C157.778 188.222 156.722 188.278 156.667 188.333z"/>
<path style="fill:#ffffff; stroke:none;" d="M158 188L159 189L158 188z"/>
<path style="fill:#bdc2d5; stroke:none;" d="M207.667 188.333C207.222 188.778 208.278 188.722 208.333 188.667C208.778 188.222 207.722 188.278 207.667 188.333z"/>
<path style="fill:#ccccd9; stroke:none;" d="M217 188L218 189L217 188z"/>
<path style="fill:#acacbb; stroke:none;" d="M412 188C413.248 188.685 413.548 188.749 415 189C413.752 188.315 413.452 188.251 412 188z"/>
<path style="fill:#ffffff; stroke:none;" d="M421 188L422 189L421 188z"/>
<path style="fill:#aaaaff; stroke:none;" d="M136 189L137 190L136 189z"/>
<path style="fill:#ffffff; stroke:none;" d="M137 189L138 190L137 189z"/>
<path style="fill:#dbdbff; stroke:none;" d="M150.667 189.333C150.222 189.778 151.278 189.722 151.333 189.667C151.778 189.222 150.722 189.278 150.667 189.333z"/>
<path style="fill:#aaaaff; stroke:none;" d="M152 189C153.248 189.685 153.548 189.749 155 190C153.752 189.315 153.452 189.251 152 189z"/>
<path style="fill:#ffffff; stroke:none;" d="M155 189L156 190L155 189z"/>
<path style="fill:#d2d2e1; stroke:none;" d="M209.667 189.333C209.222 189.778 210.278 189.722 210.333 189.667C210.778 189.222 209.722 189.278 209.667 189.333z"/>
<path style="fill:#b3b0c3; stroke:none;" d="M218.333 189.667C218.278 189.722 218.222 190.778 218.667 190.333C218.722 190.278 218.778 189.222 218.333 189.667z"/>
<path style="fill:#ffffff; stroke:none;" d="M326 189L327 190L326 189M409 189L410 190L409 189z"/>
<path style="fill:#aaaaff; stroke:none;" d="M418.667 189.333C418.222 189.778 419.278 189.722 419.333 189.667C419.778 189.222 418.722 189.278 418.667 189.333z"/>
<path style="fill:#cfcfe3; stroke:none;" d="M431 189L431 197C432.161 194.23 432.161 191.77 431 189z"/>
<path style="fill:#bfbfbf; stroke:none;" d="M495 189C495.545 190.635 495.365 190.455 497 191L497 189L495 189z"/>
<path style="fill:#d8d8eb; stroke:none;" d="M132.667 190.333C132.222 190.778 133.278 190.722 133.333 190.667C133.778 190.222 132.722 190.278 132.667 190.333z"/>
<path style="fill:#b2b2d4; stroke:none;" d="M134.667 190.333C134.222 190.778 135.278 190.722 135.333 190.667C135.778 190.222 134.722 190.278 134.667 190.333z"/>
<path style="fill:#aeb9d1; stroke:none;" d="M144 190C145.248 190.685 145.548 190.749 147 191C145.752 190.315 145.452 190.251 144 190z"/>
<path style="fill:#ffffff; stroke:none;" d="M147 190L148 191L147 190z"/>
<path style="fill:#a5a5af; stroke:none;" d="M211.667 190.333C211.222 190.778 212.278 190.722 212.333 190.667C212.778 190.222 211.722 190.278 211.667 190.333z"/>
<path style="fill:#c4c4d1; stroke:none;" d="M407.667 190.333C407.222 190.778 408.278 190.722 408.333 190.667C408.778 190.222 407.722 190.278 407.667 190.333z"/>
<path style="fill:#aaaabd; stroke:none;" d="M415 190C416.248 190.685 416.548 190.749 418 191C416.752 190.315 416.452 190.251 415 190z"/>
<path style="fill:#ffffff; stroke:none;" d="M493 190L494 191L493 190z"/>
<path style="fill:#80809a; stroke:none;" d="M494 190C493.095 196.126 490.857 202.102 489 208L491 208C490.051 213.415 488.965 218.47 489.001 223.999C489.013 225.895 488.669 228.662 490.028 230.218C493.245 233.903 501.402 228.481 505 227.745C512.748 226.159 521.325 229.685 529 230.357C532.318 230.648 535.669 229.211 539 229C535.494 227.529 531.727 228.278 528 227.675C520.236 226.419 513.004 224.269 505 225.108C501.521 225.473 494.624 230.137 492.198 225.681C490.914 223.324 492.072 219.528 492.266 217C492.916 208.55 498.049 198.132 496 190L494 190z"/>
<path style="fill:#d5d5df; stroke:none;" d="M497 190L497 194C497.71 192.24 497.71 191.759 497 190z"/>
<path style="fill:#ccccff; stroke:none;" d="M130 191L131 192L130 191z"/>
<path style="fill:#c6c6e3; stroke:none;" d="M141 191C142.248 191.685 142.548 191.749 144 192C142.752 191.315 142.452 191.251 141 191z"/>
<path style="fill:#b2b2bd; stroke:none;" d="M213 191L214 192L213 191z"/>
<path style="fill:#a1aabd; stroke:none;" d="M219 191L219 197C219.951 194.715 219.951 193.285 219 191z"/>
<path style="fill:#b0b0b9; stroke:none;" d="M405.667 191.333C405.222 191.778 406.278 191.722 406.333 191.667C406.778 191.222 405.722 191.278 405.667 191.333z"/>
<path style="fill:#c3c3da; stroke:none;" d="M413 191C414.248 191.685 414.549 191.749 416 192C414.752 191.315 414.452 191.251 413 191z"/>
<path style="fill:#aaaab3; stroke:none;" d="M452 191C453.506 191.683 454.315 191.826 456 192C454.494 191.317 453.685 191.174 452 191z"/>
<path style="fill:#bcc3cb; stroke:none;" d="M493 191L493 194C493.696 192.446 493.696 192.554 493 191z"/>
<path style="fill:#e1e1ff; stroke:none;" d="M127.667 192.333C127.222 192.778 128.278 192.722 128.333 192.667C128.778 192.222 127.722 192.278 127.667 192.333z"/>
<path style="fill:#dfdfdf; stroke:none;" d="M139 192L140 193L139 192z"/>
<path style="fill:#aaaaff; stroke:none;" d="M140 192L141 193L140 192z"/>
<path style="fill:#ffffff; stroke:none;" d="M213 192L214 193L213 192z"/>
<path style="fill:#b7bfbf; stroke:none;" d="M214 192L215 193L214 192z"/>
<path style="fill:#8181a1; stroke:none;" d="M217 192C212.695 201.017 202.086 205.364 193 208.49C178.677 213.418 163.684 216.439 149 219.843C140.439 221.828 131.745 224.429 123 225.158C113.01 225.991 92.129 228.665 91 214C85.4284 222.169 94.9558 226.944 102 228C97.5828 232.139 87.9663 232.409 82 233.154C69.2164 234.751 56.8335 238.878 44 239.914C40.3447 240.21 36.6174 241.376 33 241.466C28.8232 241.57 25.6714 239.017 24 244C39.0557 246.938 54.4953 236.848 69 240C72.1175 237.635 76.2151 237.681 80 236.731C89.8915 234.248 102.848 230.019 113 232C116.486 229.359 120.753 230 125 230L149 230C180.641 230 212.305 229 244 229C238.047 222.921 222.102 226 214 226C185.567 226 157.382 228 129 228L129 226C138.216 225.975 147.062 223.505 156 221.499C170.704 218.2 184.825 214.386 198.999 209.155C207.562 205.995 218.428 202.48 219 192L217 192z"/>
<path style="fill:#c8c8c8; stroke:none;" d="M331.333 192.667C331.278 192.722 331.222 193.778 331.667 193.333C331.722 193.278 331.778 192.222 331.333 192.667z"/>
<path style="fill:#c2c2cd; stroke:none;" d="M400 193C401.809 193.574 402.069 193.465 404 193C402.341 192.594 401.758 192.691 400 193z"/>
<path style="fill:#bfbfbf; stroke:none;" d="M412 192L413 193L412 192z"/>
<path style="fill:#ffffff; stroke:none;" d="M413 192L414 193L413 192M450 192L451 193L450 192z"/>
<path style="fill:#b6b6b6; stroke:none;" d="M451 192L452 193L451 192z"/>
<path style="fill:#828189; stroke:none;" d="M448 198C450.738 197.39 453.195 196.954 456 197L456 192C451.789 192.565 449.285 193.836 448 198z"/>
<path style="fill:#9f9f9f; stroke:none;" d="M456 192L456 195C456.696 193.446 456.696 193.554 456 192z"/>
<path style="fill:#bfcadf; stroke:none;" d="M124 193C125.248 193.685 125.548 193.749 127 194C125.752 193.315 125.451 193.251 124 193z"/>
<path style="fill:#bcbcd3; stroke:none;" d="M135 193L136 194L135 193z"/>
<path style="fill:#b8b8cc; stroke:none;" d="M215 193L216 194L215 193z"/>
<path style="fill:#ddddee; stroke:none;" d="M410 193L411 194L410 193z"/>
<path style="fill:#b0b0bf; stroke:none;" d="M449.667 193.333C449.222 193.778 450.278 193.722 450.333 193.667C450.778 193.222 449.722 193.278 449.667 193.333z"/>
<path style="fill:#aaaac6; stroke:none;" d="M121 194C122.248 194.685 122.548 194.749 124 195C122.752 194.315 122.451 194.251 121 194z"/>
<path style="fill:#c8c8de; stroke:none;" d="M131 194C132.506 194.683 133.315 194.826 135 195C133.494 194.317 132.685 194.174 131 194z"/>
<path style="fill:#ffffff; stroke:none;" d="M331 194L332 195L331 194z"/>
<path style="fill:#ababb3; stroke:none;" d="M398.667 194.333C398.222 194.778 399.278 194.722 399.333 194.667C399.778 194.222 398.722 194.278 398.667 194.333z"/>
<path style="fill:#c2c2d0; stroke:none;" d="M406 194C407.506 194.683 408.315 194.826 410 195C408.494 194.317 407.685 194.174 406 194z"/>
<path style="fill:#d5d5ff; stroke:none;" d="M427.333 194.667C427.278 194.722 427.222 195.778 427.667 195.333C427.722 195.278 427.778 194.222 427.333 194.667z"/>
<path style="fill:#d1d1d1; stroke:none;" d="M448 194L449 195L448 194z"/>
<path style="fill:#dbdbed; stroke:none;" d="M492 194L492 197C492.696 195.446 492.696 195.554 492 194z"/>
<path style="fill:#c6e3ff; stroke:none;" d="M118.667 195.333C118.222 195.778 119.278 195.722 119.333 195.667C119.778 195.222 118.722 195.278 118.667 195.333z"/>
<path style="fill:#aaaaff; stroke:none;" d="M130 195L131 196L130 195z"/>
<path style="fill:#e4e4e4; stroke:none;" d="M395.667 195.333C395.222 195.778 396.278 195.722 396.333 195.667C396.778 195.222 395.722 195.278 395.667 195.333z"/>
<path style="fill:#b5b5ba; stroke:none;" d="M397 195L398 196L397 195z"/>
<path style="fill:#ffffff; stroke:none;" d="M405.667 195.333C405.222 195.778 406.278 195.722 406.333 195.667C406.778 195.222 405.722 195.278 405.667 195.333z"/>
<path style="fill:#d5d5d5; stroke:none;" d="M446.667 195.333C446.222 195.778 447.278 195.722 447.333 195.667C447.778 195.222 446.722 195.278 446.667 195.333z"/>
<path style="fill:#ffffff; stroke:none;" d="M456 195L457 196L456 195z"/>
<path style="fill:#bfbfca; stroke:none;" d="M496 195L496 198C496.696 196.446 496.696 196.554 496 195z"/>
<path style="fill:#ffffff; stroke:none;" d="M115 196L116 197L115 196z"/>
<path style="fill:#bfbfdf; stroke:none;" d="M116 196C117.248 196.685 117.548 196.749 119 197C117.752 196.315 117.451 196.251 116 196z"/>
<path style="fill:#b6b6c8; stroke:none;" d="M125.667 196.333C125.222 196.778 126.278 196.722 126.333 196.667C126.778 196.222 125.722 196.278 125.667 196.333z"/>
<path style="fill:#ffffff; stroke:none;" d="M214 196L215 197L214 196z"/>
<path style="fill:#d5d5d5; stroke:none;" d="M394 196L395 197L394 196z"/>
<path style="fill:#e6e6e6; stroke:none;" d="M404 196L405 197L404 196z"/>
<path style="fill:#bdbdd6; stroke:none;" d="M427 196L427 202C427.951 199.715 427.951 198.285 427 196z"/>
<path style="fill:#d7d7f2; stroke:none;" d="M445 196L446 197L445 196z"/>
<path style="fill:#a5a5ad; stroke:none;" d="M452.667 196.333C452.222 196.778 453.278 196.722 453.333 196.667C453.778 196.222 452.722 196.278 452.667 196.333z"/>
<path style="fill:#c5c5dc; stroke:none;" d="M122 197C123.248 197.685 123.548 197.749 125 198C123.752 197.315 123.451 197.251 122 197z"/>
<path style="fill:#ffffff; stroke:none;" d="M213 197L214 198L213 197z"/>
<path style="fill:#b4b4cd; stroke:none;" d="M218 197L219 198L218 197z"/>
<path style="fill:#a6a6b9; stroke:none;" d="M330 197L330 205C331.161 202.23 331.161 199.77 330 197z"/>
<path style="fill:#e3e3e3; stroke:none;" d="M393 197L394 198L393 197z"/>
<path style="fill:#cdcdd5; stroke:none;" d="M401 197L402 198L401 197z"/>
<path style="fill:#ffffff; stroke:none;" d="M402 197L403 198L402 197z"/>
<path style="fill:#bfbfbf; stroke:none;" d="M431 197L431 201C431.71 199.24 431.71 198.759 431 197z"/>
<path style="fill:#a9a9bf; stroke:none;" d="M443.667 197.333C443.222 197.778 444.278 197.722 444.333 197.667C444.778 197.222 443.722 197.278 443.667 197.333z"/>
<path style="fill:#ccccdb; stroke:none;" d="M450 197C451.248 197.685 451.548 197.749 453 198C451.752 197.315 451.452 197.251 450 197z"/>
<path style="fill:#ffffff; stroke:none;" d="M454.667 197.333C454.222 197.778 455.278 197.722 455.333 197.667C455.778 197.222 454.722 197.278 454.667 197.333M111 198L112 199L111 198z"/>
<path style="fill:#bfbfcf; stroke:none;" d="M121 198L122 199L121 198z"/>
<path style="fill:#ffffff; stroke:none;" d="M122 198L123 199L122 198z"/>
<path style="fill:#c7c7e7; stroke:none;" d="M213 198L214 199L213 198z"/>
<path style="fill:#ffffff; stroke:none;" d="M218 198L219 199L218 198z"/>
<path style="fill:#a4a4ad; stroke:none;" d="M399 198L399 201C399.696 199.446 399.696 199.554 399 198z"/>
<path style="fill:#ffffff; stroke:none;" d="M400 198L401 199L400 198M441 198L442 199L441 198z"/>
<path style="fill:#b8b8cc; stroke:none;" d="M442 198L443 199L442 198z"/>
<path style="fill:#d8d8d8; stroke:none;" d="M449 198L450 199L449 198z"/>
<path style="fill:#c2c2e0; stroke:none;" d="M109 199C110.248 199.685 110.548 199.749 112 200C110.752 199.315 110.451 199.251 109 199z"/>
<path style="fill:#ffffff; stroke:none;" d="M119 199L120 200L119 199z"/>
<path style="fill:#c3c3e1; stroke:none;" d="M211.667 199.333C211.222 199.778 212.278 199.722 212.333 199.667C212.778 199.222 211.722 199.278 211.667 199.333z"/>
<path style="fill:#b8b8d8; stroke:none;" d="M216 199L217 200L216 199z"/>
<path style="fill:#ffffff; stroke:none;" d="M326 199L327 200L326 199z"/>
<path style="fill:#9f9f9f; stroke:none;" d="M392.333 199.667C392.278 199.722 392.222 200.778 392.667 200.333C392.722 200.278 392.778 199.222 392.333 199.667z"/>
<path style="fill:#cfcfdf; stroke:none;" d="M440 199L441 200L440 199z"/>
<path style="fill:#b3b3cc; stroke:none;" d="M446.667 199.333C446.222 199.778 447.278 199.722 447.333 199.667C447.778 199.222 446.722 199.278 446.667 199.333z"/>
<path style="fill:#ffffff; stroke:none;" d="M448 199L449 200L448 199z"/>
<path style="fill:#bfbfca; stroke:none;" d="M495 199L496 200L495 199z"/>
<path style="fill:#a1a1bf; stroke:none;" d="M107.667 200.333C107.222 200.778 108.278 200.722 108.333 200.667C108.778 200.222 107.722 200.278 107.667 200.333z"/>
<path style="fill:#bcbce4; stroke:none;" d="M115.667 200.333C115.222 200.778 116.278 200.722 116.333 200.667C116.778 200.222 115.722 200.278 115.667 200.333z"/>
<path style="fill:#aba8c3; stroke:none;" d="M438.667 200.333C438.222 200.778 439.278 200.722 439.333 200.667C439.778 200.222 438.722 200.278 438.667 200.333z"/>
<path style="fill:#ffffff; stroke:none;" d="M446 200L447 201L446 200M104 201L105 202L104 201z"/>
<path style="fill:#bfbfcf; stroke:none;" d="M105 201L106 202L105 201z"/>
<path style="fill:#ffffff; stroke:none;" d="M114 201L115 202L114 201z"/>
<path style="fill:#d9d9f2; stroke:none;" d="M207.667 201.333C207.222 201.778 208.278 201.722 208.333 201.667C208.778 201.222 207.722 201.278 207.667 201.333z"/>
<path style="fill:#ffffff; stroke:none;" d="M215 201L216 202L215 201z"/>
<path style="fill:#b8b8bc; stroke:none;" d="M393.667 201.333C393.222 201.778 394.278 201.722 394.333 201.667C394.778 201.222 393.722 201.278 393.667 201.333z"/>
<path style="fill:#ffffff; stroke:none;" d="M401 201L402 202L401 201M431 201L432 202L431 201z"/>
<path style="fill:#d8d8eb; stroke:none;" d="M435.667 201.333C435.222 201.778 436.278 201.722 436.333 201.667C436.778 201.222 435.722 201.278 435.667 201.333z"/>
<path style="fill:#aaaaff; stroke:none;" d="M443.667 201.333C443.222 201.778 444.278 201.722 444.333 201.667C444.778 201.222 443.722 201.278 443.667 201.333z"/>
<path style="fill:#d3d3e2; stroke:none;" d="M494 201L494 208C495.059 205.466 495.059 203.534 494 201z"/>
<path style="fill:#ffffff; stroke:none;" d="M102 202L103 203L102 202z"/>
<path style="fill:#c5c5de; stroke:none;" d="M103 202L104 203L103 202z"/>
<path style="fill:#a1a5c5; stroke:none;" d="M109 202C110.506 202.683 111.315 202.826 113 203C111.494 202.317 110.685 202.174 109 202z"/>
<path style="fill:#c8c8de; stroke:none;" d="M205.667 202.333C205.222 202.778 206.278 202.722 206.333 202.667C206.778 202.222 205.722 202.278 205.667 202.333z"/>
<path style="fill:#bfbfcf; stroke:none;" d="M212.667 202.333C212.222 202.778 213.278 202.722 213.333 202.667C213.778 202.222 212.722 202.278 212.667 202.333z"/>
<path style="fill:#b9b9ca; stroke:none;" d="M325 202L325 205C325.696 203.446 325.696 203.554 325 202z"/>
<path style="fill:#aaaab2; stroke:none;" d="M396 202C397.506 202.683 398.315 202.826 400 203C398.494 202.317 397.685 202.174 396 202z"/>
<path style="fill:#a9a9bb; stroke:none;" d="M427 202L427 206C427.71 204.24 427.71 203.76 427 202z"/>
<path style="fill:#b9b9d1; stroke:none;" d="M430 202C430.406 204.092 430.217 204.02 432 205C431.309 203.612 431.015 203.139 430 202z"/>
<path style="fill:#cfcfdf; stroke:none;" d="M434 202L435 203L434 202z"/>
<path style="fill:#b1b1bc; stroke:none;" d="M440 202C441.248 202.685 441.548 202.749 443 203C441.752 202.315 441.452 202.251 440 202z"/>
<path style="fill:#babad5; stroke:none;" d="M490 202L490 205C490.696 203.446 490.696 203.554 490 202z"/>
<path style="fill:#dbdbff; stroke:none;" d="M109 203L110 204L109 203z"/>
<path style="fill:#ffffff; stroke:none;" d="M432 203L433 204L432 203z"/>
<path style="fill:#cccce6; stroke:none;" d="M439 203L440 204L439 203z"/>
<path style="fill:#ffffff; stroke:none;" d="M440 203L441 204L440 203z"/>
<path style="fill:#b6b6ce; stroke:none;" d="M99.6667 204.333C99.2222 204.778 100.278 204.722 100.333 204.667C100.778 204.222 99.7222 204.278 99.6667 204.333z"/>
<path style="fill:#aaaaff; stroke:none;" d="M107.667 204.333C107.222 204.778 108.278 204.722 108.333 204.667C108.778 204.222 107.722 204.278 107.667 204.333z"/>
<path style="fill:#dbdbff; stroke:none;" d="M201.667 204.333C201.222 204.778 202.278 204.722 202.333 204.667C202.778 204.222 201.722 204.278 201.667 204.333z"/>
<path style="fill:#ffffff; stroke:none;" d="M210.667 204.333C210.222 204.778 211.278 204.722 211.333 204.667C211.778 204.222 210.722 204.278 210.667 204.333z"/>
<path style="fill:#bfbfff; stroke:none;" d="M438 204L439 205L438 204z"/>
<path style="fill:#ffffff; stroke:none;" d="M489 204L490 205L489 204z"/>
<path style="fill:#cccce0; stroke:none;" d="M98 205L99 206L98 205z"/>
<path style="fill:#cccce6; stroke:none;" d="M106 205L107 206L106 205z"/>
<path style="fill:#d8d8eb; stroke:none;" d="M199 205L200 206L199 205z"/>
<path style="fill:#aaaac5; stroke:none;" d="M206 205C207.248 205.685 207.549 205.749 209 206C207.752 205.315 207.452 205.251 206 205z"/>
<path style="fill:#d6d6de; stroke:none;" d="M324.333 205.667C324.278 205.722 324.222 206.778 324.667 206.333C324.722 206.278 324.778 205.222 324.333 205.667z"/>
<path style="fill:#aaaaff; stroke:none;" d="M426 205L427 206L426 205z"/>
<path style="fill:#b1b1bc; stroke:none;" d="M434.667 205.333C434.222 205.778 435.278 205.722 435.333 205.667C435.778 205.222 434.722 205.278 434.667 205.333z"/>
<path style="fill:#ffffff; stroke:none;" d="M436 205L437 206L436 205z"/>
<path style="fill:#b9b9ca; stroke:none;" d="M489 205L490 206L489 205z"/>
<path style="fill:#aeaec9; stroke:none;" d="M197.667 206.333C197.222 206.778 198.278 206.722 198.333 206.667C198.778 206.222 197.722 206.278 197.667 206.333z"/>
<path style="fill:#d5d5ff; stroke:none;" d="M206 206L207 207L206 206z"/>
<path style="fill:#ffffff; stroke:none;" d="M330 206L331 207L330 206z"/>
<path style="fill:#bfbfff; stroke:none;" d="M433.667 206.333C433.222 206.778 434.278 206.722 434.333 206.667C434.778 206.222 433.722 206.278 433.667 206.333M95 207L96 208L95 207z"/>
<path style="fill:#b1bcd3; stroke:none;" d="M102 207C103.248 207.685 103.548 207.749 105 208C103.752 207.315 103.451 207.251 102 207z"/>
<path style="fill:#d5d5ea; stroke:none;" d="M193 207C194.506 207.683 195.315 207.826 197 208C195.494 207.317 194.685 207.174 193 207z"/>
<path style="fill:#ffffff; stroke:none;" d="M204.667 207.333C204.222 207.778 205.278 207.722 205.333 207.667C205.778 207.222 204.722 207.278 204.667 207.333z"/>
<path style="fill:#aaaaff; stroke:none;" d="M323 207L324 208L323 207z"/>
<path style="fill:#d5d5d5; stroke:none;" d="M422.667 207.333C422.222 207.778 423.278 207.722 423.333 207.667C423.778 207.222 422.722 207.278 422.667 207.333z"/>
<path style="fill:#a3a1b5; stroke:none;" d="M424.667 207.333C424.222 207.778 425.278 207.722 425.333 207.667C425.778 207.222 424.722 207.278 424.667 207.333z"/>
<path style="fill:#aaaaff; stroke:none;" d="M431.667 207.333C431.222 207.778 432.278 207.722 432.333 207.667C432.778 207.222 431.722 207.278 431.667 207.333z"/>
<path style="fill:#8582b1; stroke:none;" d="M488 207C487.279 210.56 486.365 213.36 487 217C490.588 214.15 492.573 209.78 488 207z"/>
<path style="fill:#d1d1e8; stroke:none;" d="M93.3333 208.667C93.2779 208.722 93.2222 209.778 93.6667 209.333C93.7223 209.278 93.7777 208.222 93.3333 208.667z"/>
<path style="fill:#bfbfdf; stroke:none;" d="M100 208L101 209L100 208z"/>
<path style="fill:#b2b2cc; stroke:none;" d="M191.667 208.333C191.222 208.778 192.278 208.722 192.333 208.667C192.778 208.222 191.722 208.278 191.667 208.333z"/>
<path style="fill:#aaaac6; stroke:none;" d="M200 208C201.248 208.685 201.548 208.749 203 209C201.752 208.315 201.452 208.251 200 208z"/>
<path style="fill:#e6e6e6; stroke:none;" d="M420 208L421 209L420 208z"/>
<path style="fill:#beb7d8; stroke:none;" d="M487 208L487 211C487.696 209.446 487.696 209.554 487 208z"/>
<path style="fill:#ffffff; stroke:none;" d="M494 208L495 209L494 208z"/>
<path style="fill:#aaaaaa; stroke:none;" d="M98.6667 209.333C98.2221 209.778 99.2778 209.722 99.3333 209.667C99.7778 209.222 98.7222 209.278 98.6667 209.333z"/>
<path style="fill:#a8abbf; stroke:none;" d="M189.667 209.333C189.222 209.778 190.278 209.722 190.333 209.667C190.778 209.222 189.722 209.278 189.667 209.333z"/>
<path style="fill:#c8c8db; stroke:none;" d="M197 209C198.248 209.685 198.549 209.749 200 210C198.752 209.315 198.452 209.251 197 209z"/>
<path style="fill:#c6c6e3; stroke:none;" d="M329 209L329 215C329.951 212.715 329.951 211.285 329 209z"/>
<path style="fill:#9f9eb0; stroke:none;" d="M419.667 209.333C419.222 209.778 420.278 209.722 420.333 209.667C420.778 209.222 419.722 209.278 419.667 209.333z"/>
<path style="fill:#9f98b3; stroke:none;" d="M429 209L429 217C430.161 214.23 430.161 211.77 429 209z"/>
<path style="fill:#bfbfbf; stroke:none;" d="M493.333 209.667C493.278 209.722 493.222 210.778 493.667 210.333C493.722 210.278 493.778 209.222 493.333 209.667z"/>
<path style="fill:#ffffff; stroke:none;" d="M91 210L92 211L91 210z"/>
<path style="fill:#b8bed0; stroke:none;" d="M97 210L98 211L97 210z"/>
<path style="fill:#ffffff; stroke:none;" d="M98 210L99 211L98 210z"/>
<path style="fill:#e3e3ff; stroke:none;" d="M184 210C185.248 210.685 185.548 210.749 187 211C185.752 210.315 185.452 210.251 184 210z"/>
<path style="fill:#aaaaff; stroke:none;" d="M196.667 210.333C196.222 210.778 197.278 210.722 197.333 210.667C197.778 210.222 196.722 210.278 196.667 210.333z"/>
<path style="fill:#a5a5c2; stroke:none;" d="M322.333 210.667C322.278 210.722 322.222 211.778 322.667 211.333C322.722 211.278 322.778 210.222 322.333 210.667z"/>
<path style="fill:#e3e3f1; stroke:none;" d="M414.667 210.333C414.222 210.778 415.278 210.722 415.333 210.667C415.778 210.222 414.722 210.278 414.667 210.333z"/>
<path style="fill:#d2d2eb; stroke:none;" d="M424 210L426 213C427.118 210.86 426.251 210.473 424 210z"/>
<path style="fill:#d5d5ff; stroke:none;" d="M90 211L90 214C90.6961 212.446 90.6961 212.554 90 211z"/>
<path style="fill:#ffffff; stroke:none;" d="M180 211L181 212L180 211z"/>
<path style="fill:#d5d5d5; stroke:none;" d="M181 211C182.248 211.685 182.548 211.749 184 212C182.752 211.315 182.452 211.251 181 211z"/>
<path style="fill:#aaaac4; stroke:none;" d="M191 211C192.248 211.685 192.548 211.749 194 212C192.752 211.315 192.452 211.251 191 211z"/>
<path style="fill:#ffffff; stroke:none;" d="M194 211L195 212L194 211z"/>
<path style="fill:#e3e3ff; stroke:none;" d="M321 211L322 212L321 211z"/>
<path style="fill:#c8c8d2; stroke:none;" d="M411 211C412.248 211.685 412.549 211.749 414 212C412.752 211.315 412.452 211.251 411 211z"/>
<path style="fill:#a6a6bf; stroke:none;" d="M421.667 211.333C421.222 211.778 422.278 211.722 422.333 211.667C422.778 211.222 421.722 211.278 421.667 211.333z"/>
<path style="fill:#000000; stroke:none;" d="M401 218C404.508 219.472 408.249 218.792 412 219.093C416.772 219.477 421.147 220.959 426 221L426 211C417.534 212.504 409.467 216.248 401 218z"/>
<path style="fill:#e6e6e6; stroke:none;" d="M486 211L487 212L486 211z"/>
<path style="fill:#bfbfbf; stroke:none;" d="M492.333 211.667C492.278 211.722 492.222 212.778 492.667 212.333C492.722 212.278 492.778 211.222 492.333 211.667z"/>
<path style="fill:#ccccff; stroke:none;" d="M95 212L95 214C96.6351 213.455 96.4549 213.635 97 212L95 212z"/>
<path style="fill:#c3c3da; stroke:none;" d="M189.667 212.333C189.222 212.778 190.278 212.722 190.333 212.667C190.778 212.222 189.722 212.278 189.667 212.333z"/>
<path style="fill:#ffffff; stroke:none;" d="M191 212L192 213L191 212z"/>
<path style="fill:#b7b7d1; stroke:none;" d="M325 212C325.031 213.832 324.921 213.559 326 215C325.749 213.548 325.685 213.248 325 212z"/>
<path style="fill:#aaaac0; stroke:none;" d="M409.667 212.333C409.222 212.778 410.278 212.722 410.333 212.667C410.778 212.222 409.722 212.278 409.667 212.333z"/>
<path style="fill:#bfbfd2; stroke:none;" d="M418 214L421 213C419.222 212.045 418.979 212.234 418 214z"/>
<path style="fill:#b3b3d0; stroke:none;" d="M94 213L95 214L94 213z"/>
<path style="fill:#ffffff; stroke:none;" d="M172 213L173 214L172 213z"/>
<path style="fill:#d5e3f1; stroke:none;" d="M173.667 213.333C173.222 213.778 174.278 213.722 174.333 213.667C174.778 213.222 173.722 213.278 173.667 213.333z"/>
<path style="fill:#dfdfdf; stroke:none;" d="M187.667 213.333C187.222 213.778 188.278 213.722 188.333 213.667C188.778 213.222 187.722 213.278 187.667 213.333z"/>
<path style="fill:#e1e1f0; stroke:none;" d="M417 213L418 214L417 213z"/>
<path style="fill:#b1b1eb; stroke:none;" d="M93 214L94 215L93 214z"/>
<path style="fill:#ffffff; stroke:none;" d="M169 214L170 215L169 214z"/>
<path style="fill:#bfbfdb; stroke:none;" d="M170 214C171.248 214.685 171.549 214.749 173 215C171.752 214.315 171.452 214.251 170 214z"/>
<path style="fill:#b9b9d1; stroke:none;" d="M183 214L184 215L183 214z"/>
<path style="fill:#bab6cb; stroke:none;" d="M319.333 214.667C319.278 214.722 319.222 215.778 319.667 215.333C319.722 215.278 319.778 214.222 319.333 214.667z"/>
<path style="fill:#000000; stroke:none;" d="M324 214L325 215L324 214z"/>
<path style="fill:#ffffff; stroke:none;" d="M400 214L401 215L400 214z"/>
<path style="fill:#b7b3ce; stroke:none;" d="M401.667 214.333C401.222 214.778 402.278 214.722 402.333 214.667C402.778 214.222 401.722 214.278 401.667 214.333z"/>
<path style="fill:#ccccdd; stroke:none;" d="M411.667 214.333C411.222 214.778 412.278 214.722 412.333 214.667C412.778 214.222 411.722 214.278 411.667 214.333z"/>
<path style="fill:#b2b2cc; stroke:none;" d="M484 214L484 217C484.696 215.446 484.696 215.554 484 214z"/>
<path style="fill:#b7b7d1; stroke:none;" d="M89 215L90 216L89 215z"/>
<path style="fill:#bfd5d5; stroke:none;" d="M180.667 215.333C180.222 215.778 181.278 215.722 181.333 215.667C181.778 215.222 180.722 215.278 180.667 215.333z"/>
<path style="fill:#ffffff; stroke:none;" d="M182 215L183 216L182 215M323 215L324 218C324.685 216.752 324.749 216.452 325 215L323 215z"/>
<path style="fill:#bebed2; stroke:none;" d="M408 215C409.248 215.685 409.549 215.749 411 216C409.752 215.315 409.452 215.251 408 215z"/>
<path style="fill:#c6c6ff; stroke:none;" d="M488.333 215.667C488.278 215.722 488.222 216.778 488.667 216.333C488.722 216.278 488.778 215.222 488.333 215.667z"/>
<path style="fill:#b8b8ca; stroke:none;" d="M88 216L88 221C88.8299 218.969 88.8299 218.03 88 216z"/>
<path style="fill:#ffffff; stroke:none;" d="M161 216L162 217L161 216z"/>
<path style="fill:#ccccdd; stroke:none;" d="M162 216L163 217L162 216z"/>
<path style="fill:#d1d1e8; stroke:none;" d="M178.667 216.333C178.222 216.778 179.278 216.722 179.333 216.667C179.778 216.222 178.722 216.278 178.667 216.333z"/>
<path style="fill:#ffffff; stroke:none;" d="M329 216L330 217L329 216z"/>
<path style="fill:#e4e4f2; stroke:none;" d="M393.667 216.333C393.222 216.778 394.278 216.722 394.333 216.667C394.778 216.222 393.722 216.278 393.667 216.333z"/>
<path style="fill:#d5d5ea; stroke:none;" d="M406.667 216.333C406.222 216.778 407.278 216.722 407.333 216.667C407.778 216.222 406.722 216.278 406.667 216.333z"/>
<path style="fill:#ffffff; stroke:none;" d="M483 216L484 217L483 216M492 216L493 217L492 216z"/>
<path style="fill:#d0d0ec; stroke:none;" d="M92.3333 217.667C92.2778 217.722 92.2222 218.778 92.6667 218.333C92.7223 218.278 92.7777 217.222 92.3333 217.667z"/>
<path style="fill:#c3c3d9; stroke:none;" d="M158 217C159.248 217.685 159.549 217.749 161 218C159.752 217.315 159.452 217.251 158 217z"/>
<path style="fill:#aaaac3; stroke:none;" d="M171 217C172.248 217.685 172.548 217.749 174 218C172.752 217.315 172.452 217.251 171 217z"/>
<path style="fill:#9e9bb7; stroke:none;" d="M317.333 217.667C317.278 217.722 317.222 218.778 317.667 218.333C317.722 218.278 317.778 217.222 317.333 217.667z"/>
<path style="fill:#bebed2; stroke:none;" d="M321 217L322 218L321 217z"/>
<path style="fill:#c1c5d5; stroke:none;" d="M391.667 217.333C391.222 217.778 392.278 217.722 392.333 217.667C392.778 217.222 391.722 217.278 391.667 217.333z"/>
<path style="fill:#a2a2c2; stroke:none;" d="M400 217C401.506 217.683 402.315 217.826 404 218C402.494 217.317 401.685 217.174 400 217z"/>
<path style="fill:#ffffff; stroke:none;" d="M429 217L430 218L429 217z"/>
<path style="fill:#b1b1c8; stroke:none;" d="M483 217L484 218L483 217z"/>
<path style="fill:#9c9cb6; stroke:none;" d="M487 217C488.033 221.338 488 225.561 488 230C489.53 226.353 490.156 219.758 487 217z"/>
<path style="fill:#aaaac4; stroke:none;" d="M155 218C156.248 218.685 156.549 218.749 158 219C156.752 218.315 156.452 218.251 155 218z"/>
<path style="fill:#cacadc; stroke:none;" d="M170 218L171 219L170 218z"/>
<path style="fill:#d3dbe9; stroke:none;" d="M324 218L324 221C324.696 219.446 324.696 219.554 324 218z"/>
<path style="fill:#bbbbcc; stroke:none;" d="M328 218L328 221C328.696 219.446 328.696 219.554 328 218z"/>
<path style="fill:#afafbd; stroke:none;" d="M388 218C389.248 218.685 389.548 218.749 391 219C389.752 218.315 389.452 218.251 388 218z"/>
<path style="fill:#8987b6; stroke:none;" d="M395 219C396.769 219.779 398.036 219.912 400 220L400 218C398.122 218.176 396.801 218.438 395 219z"/>
<path style="fill:#d3d3ff; stroke:none;" d="M400 218L401 219L400 218z"/>
<path style="fill:#c6c6ff; stroke:none;" d="M487 218L488 219L487 218z"/>
<path style="fill:#ffffff; stroke:none;" d="M146 219L147 220L146 219z"/>
<path style="fill:#dbdbff; stroke:none;" d="M147 219C148.506 219.683 149.315 219.826 151 220C149.494 219.317 148.685 219.174 147 219z"/>
<path style="fill:#e6e6e6; stroke:none;" d="M166.667 219.333C166.222 219.778 167.278 219.722 167.333 219.667C167.778 219.222 166.722 219.278 166.667 219.333z"/>
<path style="fill:#ffffff; stroke:none;" d="M168.667 219.333C168.222 219.778 169.278 219.722 169.333 219.667C169.778 219.222 168.722 219.278 168.667 219.333z"/>
<path style="fill:#aaaaff; stroke:none;" d="M314 219L315 220L314 219z"/>
<path style="fill:#c8c8de; stroke:none;" d="M320 219L321 220L320 219z"/>
<path style="fill:#81808f; stroke:none;" d="M378 219C376.02 220.884 374.69 221.469 372 222L372 224L390 222L390 219C385.904 219.084 382.05 219.79 378 219z"/>
<path style="fill:#ffffff; stroke:none;" d="M379.667 219.333C379.222 219.778 380.278 219.722 380.333 219.667C380.778 219.222 379.722 219.278 379.667 219.333z"/>
<path style="fill:#dcdce8; stroke:none;" d="M381 219C382.248 219.685 382.548 219.749 384 220C382.752 219.315 382.452 219.251 381 219z"/>
<path style="fill:#9393a5; stroke:none;" d="M400 219C403.697 220.551 408.017 220 412 220C408.302 218.448 403.983 219 400 219z"/>
<path style="fill:#dfdfdf; stroke:none;" d="M412.667 219.333C412.222 219.778 413.278 219.722 413.333 219.667C413.778 219.222 412.722 219.278 412.667 219.333z"/>
<path style="fill:#ffffff; stroke:none;" d="M414.667 219.333C414.222 219.778 415.278 219.722 415.333 219.667C415.778 219.222 414.722 219.278 414.667 219.333M481 219L482 220L481 219M486 219L487 220L486 219z"/>
<path style="fill:#a9a9bb; stroke:none;" d="M139 221C141.587 222.065 143.321 221.782 146 221C143.66 220.434 141.429 220.824 139 221z"/>
<path style="fill:#d5d5ea; stroke:none;" d="M161 220L162 221L161 220z"/>
<path style="fill:#a7a7ba; stroke:none;" d="M311 221C312.809 221.574 313.069 221.465 315 221C313.341 220.594 312.758 220.691 311 221z"/>
<path style="fill:#c9c9e4; stroke:none;" d="M319 220L320 221L319 220z"/>
<path style="fill:#cbcbda; stroke:none;" d="M376.667 220.333C376.222 220.778 377.278 220.722 377.333 220.667C377.778 220.222 376.722 220.278 376.667 220.333z"/>
<path style="fill:#c6c6d9; stroke:none;" d="M416 220C417.248 220.685 417.548 220.749 419 221C417.752 220.315 417.452 220.251 416 220z"/>
<path style="fill:#aaaac1; stroke:none;" d="M480 220L480 222C481.635 221.455 481.455 221.635 482 220L480 220z"/>
<path style="fill:#aaaaaa; stroke:none;" d="M485 220L484 222L486 222C486 220.147 486.3 220.65 485 220z"/>
<path style="fill:#d5d5d5; stroke:none;" d="M94 221L95 222L94 221z"/>
<path style="fill:#cccce6; stroke:none;" d="M155 221C156.769 221.779 158.036 221.912 160 222C158.231 221.221 156.964 221.088 155 221z"/>
<path style="fill:#ffffff; stroke:none;" d="M160 221L161 222L160 221z"/>
<path style="fill:#a9a9bb; stroke:none;" d="M277 221C278.769 221.779 280.036 221.912 282 222C280.231 221.221 278.964 221.088 277 221z"/>
<path style="fill:#ffffff; stroke:none;" d="M282 221L283 222L282 221z"/>
<path style="fill:#d5d5d5; stroke:none;" d="M318 221L319 222L318 221z"/>
<path style="fill:#a4a4c8; stroke:none;" d="M327.333 221.667C327.278 221.722 327.222 222.778 327.667 222.333C327.722 222.278 327.778 221.222 327.333 221.667z"/>
<path style="fill:#afafbd; stroke:none;" d="M372 221C373.506 221.683 374.315 221.826 376 222C374.494 221.317 373.685 221.174 372 221z"/>
<path style="fill:#ada9b8; stroke:none;" d="M419 221C421.332 221.985 423.457 221.981 426 222C423.668 221.015 421.543 221.019 419 221z"/>
<path style="fill:#ffffff; stroke:none;" d="M456 221L457 222L456 221z"/>
<path style="fill:#dbffff; stroke:none;" d="M89 222L90 223L89 222z"/>
<path style="fill:#d3ccdb; stroke:none;" d="M95 222L96 223L95 222z"/>
<path style="fill:#ffffff; stroke:none;" d="M96 222L97 223L96 222z"/>
<path style="fill:#e6e6e6; stroke:none;" d="M133.667 222.333C133.222 222.778 134.278 222.722 134.333 222.667C134.778 222.222 133.722 222.278 133.667 222.333z"/>
<path style="fill:#d5d5ea; stroke:none;" d="M152 222C153.248 222.685 153.548 222.749 155 223C153.752 222.315 153.452 222.251 152 222z"/>
<path style="fill:#ffffff; stroke:none;" d="M274 222L275 223L274 222z"/>
<path style="fill:#a1a1bc; stroke:none;" d="M283.333 222.667C283.278 222.722 283.222 223.778 283.667 223.333C283.722 223.278 283.778 222.222 283.333 222.667z"/>
<path style="fill:#ffffff; stroke:none;" d="M308 222L309 223L308 222z"/>
<path style="fill:#ccccd9; stroke:none;" d="M317 222L318 223L317 222z"/>
<path style="fill:#ffffff; stroke:none;" d="M323 222L324 223L323 222z"/>
<path style="fill:#dedee9; stroke:none;" d="M384 222C386.613 223.098 389.165 222.993 392 223C389.387 221.902 386.836 222.007 384 222z"/>
<path style="fill:#ffffff; stroke:none;" d="M392.667 222.333C392.222 222.778 393.278 222.722 393.333 222.667C393.778 222.222 392.722 222.278 392.667 222.333z"/>
<path style="fill:#aaaaff; stroke:none;" d="M394 222L395 223L394 222z"/>
<path style="fill:#ffffff; stroke:none;" d="M395 222L396 223L395 222M400.667 222.333C400.222 222.778 401.278 222.722 401.333 222.667C401.778 222.222 400.722 222.278 400.667 222.333z"/>
<path style="fill:#ededed; stroke:none;" d="M402 222C404.89 223.213 407.874 222.998 411 223C408.11 221.787 405.126 222.002 402 222z"/>
<path style="fill:#9b9ba7; stroke:none;" d="M411 222C414.211 223.958 417.284 224.384 421 224C417.879 222.599 414.411 222.27 411 222z"/>
<path style="fill:#dbdbff; stroke:none;" d="M429 222L430 223L429 222z"/>
<path style="fill:#e6e6e6; stroke:none;" d="M449 222C450.248 222.685 450.548 222.749 452 223C450.752 222.315 450.452 222.251 449 222M459 222L460 223L459 222z"/>
<path style="fill:#b6b6c2; stroke:none;" d="M477.667 222.333C477.222 222.778 478.278 222.722 478.333 222.667C478.778 222.222 477.722 222.278 477.667 222.333z"/>
<path style="fill:#ccccdd; stroke:none;" d="M90 223L91 224L90 223z"/>
<path style="fill:#d5d5d5; stroke:none;" d="M97.6667 223.333C97.2222 223.778 98.2778 223.722 98.3333 223.667C98.7778 223.222 97.7222 223.278 97.6667 223.333z"/>
<path style="fill:#ffffff; stroke:none;" d="M130 223L131 224L130 223z"/>
<path style="fill:#c4c4df; stroke:none;" d="M131.667 223.333C131.222 223.778 132.278 223.722 132.333 223.667C132.778 223.222 131.722 223.278 131.667 223.333z"/>
<path style="fill:#a6aac3; stroke:none;" d="M145 223C146.248 223.685 146.549 223.749 148 224C146.752 223.315 146.452 223.251 145 223z"/>
<path style="fill:#ffffff; stroke:none;" d="M148 223L149 224L148 223z"/>
<path style="fill:#a6a3b9; stroke:none;" d="M273.667 223.333C273.222 223.778 274.278 223.722 274.333 223.667C274.778 223.222 273.722 223.278 273.667 223.333z"/>
<path style="fill:#c6c6d5; stroke:none;" d="M306.667 223.333C306.222 223.778 307.278 223.722 307.333 223.667C307.778 223.222 306.722 223.278 306.667 223.333z"/>
<path style="fill:#cccccc; stroke:none;" d="M315 223L316 224L315 223z"/>
<path style="fill:#9c9cb3; stroke:none;" d="M323 223L323 230C324.059 227.466 324.059 225.534 323 223z"/>
<path style="fill:#ffffff; stroke:none;" d="M337 223L338 224L337 223z"/>
<path style="fill:#c7c7d2; stroke:none;" d="M338 223C339.506 223.683 340.315 223.826 342 224C340.494 223.317 339.685 223.174 338 223z"/>
<path style="fill:#a9a9bd; stroke:none;" d="M376 223C377.769 223.779 379.036 223.912 381 224C379.231 223.221 377.964 223.088 376 223z"/>
<path style="fill:#c3c7c7; stroke:none;" d="M430 223C431.248 223.685 431.548 223.749 433 224C431.752 223.315 431.452 223.251 430 223z"/>
<path style="fill:#ffffff; stroke:none;" d="M444.667 223.333C444.222 223.778 445.278 223.722 445.333 223.667C445.778 223.222 444.722 223.278 444.667 223.333z"/>
<path style="fill:#c6c6d3; stroke:none;" d="M447.667 223.333C447.222 223.778 448.278 223.722 448.333 223.667C448.778 223.222 447.722 223.278 447.667 223.333z"/>
<path style="fill:#dbcedb; stroke:none;" d="M460 223L461 224L460 223z"/>
<path style="fill:#ffffff; stroke:none;" d="M475 223L476 224L475 223z"/>
<path style="fill:#c1c1cf; stroke:none;" d="M476 223L477 224L476 223z"/>
<path style="fill:#d1d1e8; stroke:none;" d="M491 223L491 227C491.71 225.24 491.71 224.76 491 223z"/>
<path style="fill:#bfbfca; stroke:none;" d="M91 224L92 225L91 224z"/>
<path style="fill:#a9a9c2; stroke:none;" d="M99 224C100.506 224.683 101.315 224.826 103 225C101.494 224.317 100.685 224.174 99 224z"/>
<path style="fill:#a7abc0; stroke:none;" d="M124 224C126.332 224.985 128.457 224.981 131 225C128.668 224.015 126.543 224.019 124 224z"/>
<path style="fill:#ccccd6; stroke:none;" d="M143.667 224.333C143.222 224.778 144.278 224.722 144.333 224.667C144.778 224.222 143.722 224.278 143.667 224.333z"/>
<path style="fill:#a9a9ac; stroke:none;" d="M246 224C247.506 224.683 248.315 224.826 250 225C248.494 224.317 247.685 224.174 246 224z"/>
<path style="fill:#a7a9af; stroke:none;" d="M261 224C262.506 224.683 263.315 224.826 265 225C263.494 224.317 262.685 224.174 261 224z"/>
<path style="fill:#aaaabe; stroke:none;" d="M270 224C271.248 224.685 271.548 224.749 273 225C271.752 224.315 271.452 224.251 270 224z"/>
<path style="fill:#c3c3d2; stroke:none;" d="M278 224C279.139 225.015 279.612 225.309 281 226C280.02 224.217 280.092 224.406 278 224z"/>
<path style="fill:#bfbfbf; stroke:none;" d="M284 224C285.506 224.683 286.315 224.826 288 225C286.494 224.317 285.685 224.174 284 224z"/>
<path style="fill:#afafbf; stroke:none;" d="M288 224C293.469 226.295 301.099 225 307 225C301.531 222.705 293.901 224 288 224z"/>
<path style="fill:#cacaca; stroke:none;" d="M314 224L315 225L314 224z"/>
<path style="fill:#adadc4; stroke:none;" d="M335.667 224.333C335.222 224.778 336.278 224.722 336.333 224.667C336.778 224.222 335.722 224.278 335.667 224.333z"/>
<path style="fill:#aaaab9; stroke:none;" d="M341 224C342.769 224.779 344.036 224.912 346 225C344.231 224.221 342.964 224.088 341 224z"/>
<path style="fill:#c3c3cd; stroke:none;" d="M372 224C373.769 224.779 375.036 224.912 377 225C375.231 224.221 373.964 224.088 372 224z"/>
<path style="fill:#ffffff; stroke:none;" d="M419.667 224.333C419.222 224.778 420.278 224.722 420.333 224.667C420.778 224.222 419.722 224.278 419.667 224.333z"/>
<path style="fill:#c2c2c9; stroke:none;" d="M421.667 224.333C421.222 224.778 422.278 224.722 422.333 224.667C422.778 224.222 421.722 224.278 421.667 224.333z"/>
<path style="fill:#ababc1; stroke:none;" d="M434 224C437.163 225.327 440.586 225 444 225C440.837 223.673 437.414 224 434 224z"/>
<path style="fill:#bfbfd5; stroke:none;" d="M461.667 224.333C461.222 224.778 462.278 224.722 462.333 224.667C462.778 224.222 461.722 224.278 461.667 224.333z"/>
<path style="fill:#aaa7be; stroke:none;" d="M468 224C470.332 224.985 472.457 224.981 475 225C472.668 224.015 470.543 224.019 468 224z"/>
<path style="fill:#ffffff; stroke:none;" d="M482 224L483 225L482 224z"/>
<path style="fill:#ababb5; stroke:none;" d="M503 224C506.163 225.327 509.586 225 513 225C509.837 223.673 506.414 224 503 224z"/>
<path style="fill:#ffffff; stroke:none;" d="M92 225L93 226L92 225z"/>
<path style="fill:#ccccd9; stroke:none;" d="M93 225L94 226L93 225z"/>
<path style="fill:#b5b5c9; stroke:none;" d="M105.667 225.333C105.222 225.778 106.278 225.722 106.333 225.667C106.778 225.222 105.722 225.278 105.667 225.333z"/>
<path style="fill:#ddddee; stroke:none;" d="M107 225C108.248 225.685 108.548 225.749 110 226C108.752 225.315 108.451 225.251 107 225z"/>
<path style="fill:#ffffff; stroke:none;" d="M110 225C111.248 225.685 111.548 225.749 113 226C111.752 225.315 111.451 225.251 110 225M117.667 225.333C117.222 225.778 118.278 225.722 118.333 225.667C118.778 225.222 117.722 225.278 117.667 225.333z"/>
<path style="fill:#e4e4f2; stroke:none;" d="M120.667 225.333C120.222 225.778 121.278 225.722 121.333 225.667C121.778 225.222 120.722 225.278 120.667 225.333z"/>
<path style="fill:#e4e4ff; stroke:none;" d="M137 225C138.919 226.144 139.732 226.174 142 226C140.231 225.221 138.964 225.088 137 225z"/>
<path style="fill:#ffffff; stroke:none;" d="M178 225C182.469 226.875 188.191 226 193 226L223 226C218.531 224.125 212.809 225 208 225L178 225z"/>
<path style="fill:#aaaaff; stroke:none;" d="M223 225L224 226L223 225z"/>
<path style="fill:#e4e4f2; stroke:none;" d="M224 225C229.959 227.5 238.564 226 245 226C239.041 223.5 230.436 225 224 225z"/>
<path style="fill:#80808c; stroke:none;" d="M242 226C245.195 229.262 248.614 228.997 253 229C251.227 223.957 246.413 225.184 242 226z"/>
<path style="fill:#c9c9e4; stroke:none;" d="M251 225L252 226L251 225z"/>
<path style="fill:#ffffff; stroke:none;" d="M252 225L253 226L252 225z"/>
<path style="fill:#b3b3b3; stroke:none;" d="M260 225L261 226L260 225z"/>
<path style="fill:#dbdbf3; stroke:none;" d="M265 225C266.248 225.685 266.548 225.749 268 226C266.752 225.315 266.452 225.251 265 225z"/>
<path style="fill:#ebebeb; stroke:none;" d="M276 225L277 226L276 225z"/>
<path style="fill:#aaaaff; stroke:none;" d="M277 225L278 226L277 225z"/>
<path style="fill:#e1e1e1; stroke:none;" d="M310 225C311.506 225.683 312.315 225.826 314 226C312.494 225.317 311.685 225.174 310 225z"/>
<path style="fill:#b9b9d3; stroke:none;" d="M333.333 225.667C333.278 225.722 333.222 226.778 333.667 226.333C333.722 226.278 333.778 225.222 333.333 225.667z"/>
<path style="fill:#d1d1db; stroke:none;" d="M347 225L348 226L347 225z"/>
<path style="fill:#ffffff; stroke:none;" d="M348.667 225.333C348.222 225.778 349.278 225.722 349.333 225.667C349.778 225.222 348.722 225.278 348.667 225.333z"/>
<path style="fill:#d5d5ea; stroke:none;" d="M423.667 225.333C423.222 225.778 424.278 225.722 424.333 225.667C424.778 225.222 423.722 225.278 423.667 225.333z"/>
<path style="fill:#9c9eb5; stroke:none;" d="M425 225L425 228C425.696 226.446 425.696 226.554 425 225z"/>
<path style="fill:#d5d5ea; stroke:none;" d="M453 225C454.769 225.779 456.036 225.912 458 226C456.231 225.221 454.964 225.088 453 225z"/>
<path style="fill:#dfdfdf; stroke:none;" d="M480 225L481 226L480 225z"/>
<path style="fill:#ffffff; stroke:none;" d="M500 225L501 226L500 225z"/>
<path style="fill:#bfc6d9; stroke:none;" d="M501 225L502 226L501 225z"/>
<path style="fill:#e2e2eb; stroke:none;" d="M517 225C519.052 225.874 520.747 225.953 523 226C520.948 225.126 519.253 225.047 517 225z"/>
<path style="fill:#c6c6d5; stroke:none;" d="M113 226C114.506 226.683 115.315 226.826 117 227C115.494 226.317 114.685 226.174 113 226z"/>
<path style="fill:#8f90ba; stroke:none;" d="M129 226L129 228L133 228L133 226L129 226z"/>
<path style="fill:#aaaac3; stroke:none;" d="M133 226C136.804 230.354 149.439 228 155 228C148.587 225.309 139.956 227.291 133 226z"/>
<path style="fill:#000000; stroke:none;" d="M135 226C136.506 226.683 137.315 226.826 139 227C137.494 226.317 136.685 226.174 135 226z"/>
<path style="fill:#c2c2db; stroke:none;" d="M155 226C159.974 228.087 166.638 227 172 227C167.026 224.913 160.362 226 155 226z"/>
<path style="fill:#ffffff; stroke:none;" d="M253 226L254 227L253 226z"/>
<path style="fill:#aeaeb9; stroke:none;" d="M273.667 226.333C273.222 226.778 274.278 226.722 274.333 226.667C274.778 226.222 273.722 226.278 273.667 226.333z"/>
<path style="fill:#ffffff; stroke:none;" d="M275 226L276 227L275 226z"/>
<path style="fill:#b9b0ca; stroke:none;" d="M281 226L282 227L281 226z"/>
<path style="fill:#bfbfca; stroke:none;" d="M304 227C306.044 227.774 306.845 227.592 309 227C307.154 226.532 305.931 226.699 304 227z"/>
<path style="fill:#ffffff; stroke:none;" d="M327 226C327.545 227.635 327.365 227.455 329 228C328.455 226.365 328.635 226.545 327 226z"/>
<path style="fill:#ccccff; stroke:none;" d="M331 226L332 227L331 226z"/>
<path style="fill:#d5d5d5; stroke:none;" d="M350 226L351 227L350 226z"/>
<path style="fill:#cacadf; stroke:none;" d="M428 226L428 230C428.71 228.24 428.71 227.759 428 226z"/>
<path style="fill:#aca9b9; stroke:none;" d="M430 226C431.506 226.683 432.315 226.826 434 227C432.494 226.317 431.685 226.174 430 226z"/>
<path style="fill:#adadbd; stroke:none;" d="M446 226C447.506 226.683 448.315 226.826 450 227C448.494 226.317 447.685 226.174 446 226z"/>
<path style="fill:#b6b6c2; stroke:none;" d="M458 226L459 227L458 226z"/>
<path style="fill:#b9b9cb; stroke:none;" d="M477 226L478 227L477 226z"/>
<path style="fill:#afafc7; stroke:none;" d="M495 227C497.044 227.774 497.845 227.592 500 227C498.154 226.532 496.931 226.699 495 227z"/>
<path style="fill:#c8c8d3; stroke:none;" d="M523 226C524.248 226.685 524.548 226.749 526 227C524.752 226.315 524.452 226.251 523 226z"/>
<path style="fill:#c6c6e3; stroke:none;" d="M96 227C97.2484 227.685 97.5484 227.749 99 228C97.7517 227.315 97.4515 227.251 96 227z"/>
<path style="fill:#aaaaff; stroke:none;" d="M253.333 227.667C253.278 227.722 253.222 228.778 253.667 228.333C253.722 228.278 253.778 227.222 253.333 227.667z"/>
<path style="fill:#b2b2bc; stroke:none;" d="M261 227L262 228L261 227z"/>
<path style="fill:#aeb2c2; stroke:none;" d="M272 227L273 228L272 227z"/>
<path style="fill:#9f9fac; stroke:none;" d="M282.667 227.333C282.222 227.778 283.278 227.722 283.333 227.667C283.778 227.222 282.722 227.278 282.667 227.333z"/>
<path style="fill:#000000; stroke:none;" d="M327 227L328 228L327 227z"/>
<path style="fill:#afafc1; stroke:none;" d="M329 227C330.248 227.685 330.549 227.749 332 228C330.752 227.315 330.452 227.251 329 227z"/>
<path style="fill:#cccce6; stroke:none;" d="M338 227L339 228L338 227z"/>
<path style="fill:#c1c1cf; stroke:none;" d="M340.667 227.333C340.222 227.778 341.278 227.722 341.333 227.667C341.778 227.222 340.722 227.278 340.667 227.333z"/>
<path style="fill:#aaaab8; stroke:none;" d="M351.667 227.333C351.222 227.778 352.278 227.722 352.333 227.667C352.778 227.222 351.722 227.278 351.667 227.333z"/>
<path style="fill:#ffffff; stroke:none;" d="M353 227L354 228L353 227M424 227L425 228L424 227z"/>
<path style="fill:#c6c6d9; stroke:none;" d="M434 227C437.697 228.551 442.017 228 446 228C442.302 226.448 437.983 227 434 227z"/>
<path style="fill:#ffffff; stroke:none;" d="M446 227L447 228L446 227z"/>
<path style="fill:#cccccc; stroke:none;" d="M459 227L460 228L459 227z"/>
<path style="fill:#c5c5d1; stroke:none;" d="M470 227C472.332 227.985 474.457 227.981 477 228C474.668 227.015 472.543 227.019 470 227z"/>
<path style="fill:#c6c6d9; stroke:none;" d="M505 227C506.769 227.779 508.036 227.912 510 228C508.231 227.221 506.964 227.088 505 227z"/>
<path style="fill:#aaaaba; stroke:none;" d="M526 227C528.052 227.874 529.747 227.953 532 228C529.948 227.126 528.253 227.047 526 227z"/>
<path style="fill:#ffffff; stroke:none;" d="M532 227C534.331 227.985 536.457 227.981 539 228C536.668 227.015 534.543 227.019 532 227z"/>
<path style="fill:#c8c8ed; stroke:none;" d="M99 228C100.223 229.195 100.42 229.316 102 230C101.02 228.217 101.092 228.406 99 228z"/>
<path style="fill:#dbdbf3; stroke:none;" d="M262.667 228.333C262.222 228.778 263.278 228.722 263.333 228.667C263.778 228.222 262.722 228.278 262.667 228.333z"/>
<path style="fill:#dfdfdf; stroke:none;" d="M270 228C271.248 228.685 271.548 228.749 273 229C271.752 228.315 271.452 228.251 270 228z"/>
<path style="fill:#d9d9e6; stroke:none;" d="M283 228C286.163 229.327 289.586 229 293 229C289.837 227.673 286.414 228 283 228z"/>
<path style="fill:#ffffff; stroke:none;" d="M293.667 228.333C293.222 228.778 294.278 228.722 294.333 228.667C294.778 228.222 293.722 228.278 293.667 228.333z"/>
<path style="fill:#e6e6e6; stroke:none;" d="M295 228C297.89 229.213 300.874 228.998 304 229C301.11 227.787 298.126 228.002 295 228z"/>
<path style="fill:#aaaaff; stroke:none;" d="M335.667 228.333C335.222 228.778 336.278 228.722 336.333 228.667C336.778 228.222 335.722 228.278 335.667 228.333z"/>
<path style="fill:#ffffff; stroke:none;" d="M342.667 228.333C342.222 228.778 343.278 228.722 343.333 228.667C343.778 228.222 342.722 228.278 342.667 228.333z"/>
<path style="fill:#e4e4f2; stroke:none;" d="M344 228C345.248 228.685 345.548 228.749 347 229C345.752 228.315 345.452 228.251 344 228z"/>
<path style="fill:#d5d5ff; stroke:none;" d="M353.333 228.667C353.278 228.722 353.222 229.778 353.667 229.333C353.722 229.278 353.778 228.222 353.333 228.667z"/>
<path style="fill:#b6b6d0; stroke:none;" d="M424 228L424 232C424.71 230.24 424.71 229.759 424 228z"/>
<path style="fill:#dfdfdf; stroke:none;" d="M460 228C462.89 229.213 465.874 228.998 469 229C466.11 227.787 463.126 228.002 460 228z"/>
<path style="fill:#d5d5ea; stroke:none;" d="M501 228C502.248 228.685 502.548 228.749 504 229C502.752 228.315 502.452 228.251 501 228z"/>
<path style="fill:#dbdbed; stroke:none;" d="M510 228C512.613 229.098 515.164 228.993 518 229C515.387 227.902 512.835 228.007 510 228z"/>
<path style="fill:#8080aa; stroke:none;" d="M533 229C536.461 230.663 540.185 230.921 544 231L544 228L533 229z"/>
<path style="fill:#bbb5c1; stroke:none;" d="M544 228L544 232C544.71 230.241 544.71 229.759 544 228z"/>
<path style="fill:#a5a8c3; stroke:none;" d="M175 229C176.506 229.683 177.315 229.826 179 230C177.494 229.317 176.685 229.174 175 229z"/>
<path style="fill:#b1b1c8; stroke:none;" d="M180 229C185.707 231.395 193.846 230 200 230L242 230C236.293 227.605 228.154 229 222 229L180 229z"/>
<path style="fill:#aaaac6; stroke:none;" d="M244.667 229.333C244.222 229.778 245.278 229.722 245.333 229.667C245.778 229.222 244.722 229.278 244.667 229.333z"/>
<path style="fill:#8080ac; stroke:none;" d="M246 229C247.611 235.991 245.314 242.916 247 250L249 250C250.623 243.182 250 235.971 250 229L246 229z"/>
<path style="fill:#b8b8cc; stroke:none;" d="M250 229L250 242C251.591 238.209 251.591 232.791 250 229z"/>
<path style="fill:#ffffff; stroke:none;" d="M264 229L265 230L264 229z"/>
<path style="fill:#b1b1ba; stroke:none;" d="M265 229C266.248 229.685 266.548 229.749 268 230C266.752 229.315 266.452 229.251 265 229z"/>
<path style="fill:#ccccff; stroke:none;" d="M268 229L269 230L268 229z"/>
<path style="fill:#aaaaaa; stroke:none;" d="M333.667 229.333C333.222 229.778 334.278 229.722 334.333 229.667C334.778 229.222 333.722 229.278 333.667 229.333z"/>
<path style="fill:#aaaab5; stroke:none;" d="M349 229C350.506 229.683 351.315 229.826 353 230C351.494 229.317 350.685 229.174 349 229z"/>
<path style="fill:#81819f; stroke:none;" d="M425 229L423 240C402.646 240 382.29 239.7 362 241.09C348.958 241.983 336.102 244 323 244L323 247C332.526 246.995 341.567 244.453 351 244.039C375.009 242.986 399.01 242.831 423 242L423 254C427.618 251.274 426.095 246.734 426 242C461.617 242.098 497.319 244 533 244C528.386 241.547 523.103 242 518 242C510.581 242 503.387 241.64 496 241.961C481.953 242.57 467.032 241.871 453 240.91C443.92 240.289 435.122 238.951 426 240C426.171 236.019 427.443 232.354 425 229z"/>
<path style="fill:#ffffff; stroke:none;" d="M500 229L501 230L500 229z"/>
<path style="fill:#a7a7b4; stroke:none;" d="M521 229C522.769 229.779 524.036 229.912 526 230C524.231 229.221 522.964 229.088 521 229z"/>
<path style="fill:#b0b0c7; stroke:none;" d="M93 230C95.3315 230.985 97.4567 230.981 100 231C97.6684 230.015 95.5434 230.019 93 230z"/>
<path style="fill:#c1c6d7; stroke:none;" d="M113 230C117.469 231.875 123.191 231 128 231L159 231C154.531 229.125 148.809 230 144 230L113 230z"/>
<path style="fill:#ffffff; stroke:none;" d="M159.667 230.333C159.222 230.778 160.278 230.722 160.333 230.667C160.778 230.222 159.722 230.278 159.667 230.333M162 230C163.506 230.683 164.315 230.826 166 231C164.494 230.317 163.685 230.174 162 230M169 230L170 231L169 230M172.667 230.333C172.222 230.778 173.278 230.722 173.333 230.667C173.778 230.222 172.722 230.278 172.667 230.333z"/>
<path style="fill:#d6d6e5; stroke:none;" d="M246 230L246 235C246.83 232.969 246.83 232.03 246 230z"/>
<path style="fill:#c9d7e4; stroke:none;" d="M323 230L324 231L323 230z"/>
<path style="fill:#bfbfca; stroke:none;" d="M331.667 230.333C331.222 230.778 332.278 230.722 332.333 230.667C332.778 230.222 331.722 230.278 331.667 230.333z"/>
<path style="fill:#b9b6cd; stroke:none;" d="M427 230L427 234C427.71 232.24 427.71 231.759 427 230z"/>
<path style="fill:#d5d5d5; stroke:none;" d="M497.667 230.333C497.222 230.778 498.278 230.722 498.333 230.667C498.778 230.222 497.722 230.278 497.667 230.333z"/>
<path style="fill:#c4c7cb; stroke:none;" d="M527.667 230.333C527.222 230.778 528.278 230.722 528.333 230.667C528.778 230.222 527.722 230.278 527.667 230.333z"/>
<path style="fill:#8e8eba; stroke:none;" d="M532 230L532 232L544 232C540.29 230.334 536.051 230.084 532 230z"/>
<path style="fill:#e6e6e6; stroke:none;" d="M87 231C88.2484 231.685 88.5484 231.749 90 232C88.7517 231.315 88.4515 231.251 87 231z"/>
<path style="fill:#d5d5ea; stroke:none;" d="M107 231C108.769 231.779 110.036 231.912 112 232C110.231 231.221 108.964 231.088 107 231z"/>
<path style="fill:#ffffff; stroke:none;" d="M330.667 231.333C330.222 231.778 331.278 231.722 331.333 231.667C331.778 231.222 330.722 231.278 330.667 231.333z"/>
<path style="fill:#d9d9f2; stroke:none;" d="M489.667 231.333C489.222 231.778 490.278 231.722 490.333 231.667C490.778 231.222 489.722 231.278 489.667 231.333z"/>
<path style="fill:#d9d9e6; stroke:none;" d="M493 231C494.506 231.683 495.315 231.826 497 232C495.494 231.317 494.685 231.174 493 231z"/>
<path style="fill:#ffffff; stroke:none;" d="M529.667 231.333C529.222 231.778 530.278 231.722 530.333 231.667C530.778 231.222 529.722 231.278 529.667 231.333z"/>
<path style="fill:#bfbfd5; stroke:none;" d="M531 231L532 232L531 231z"/>
<path style="fill:#ffffff; stroke:none;" d="M80 232L81 233L80 232z"/>
<path style="fill:#c3c9d7; stroke:none;" d="M81 232C83.3316 232.985 85.4567 232.981 88 233C85.6684 232.015 83.5433 232.019 81 232z"/>
<path style="fill:#a7a7b9; stroke:none;" d="M100 232C101.248 232.685 101.548 232.749 103 233C101.752 232.315 101.452 232.251 100 232z"/>
<path style="fill:#ababb4; stroke:none;" d="M325 232C326.248 232.685 326.548 232.749 328 233C326.752 232.315 326.452 232.251 325 232z"/>
<path style="fill:#dadae9; stroke:none;" d="M423 232L423 237C423.83 234.97 423.83 234.03 423 232z"/>
<path style="fill:#a9adba; stroke:none;" d="M77 233C78.2484 233.685 78.5484 233.749 80 234C78.7517 233.315 78.4515 233.251 77 233z"/>
<path style="fill:#c5c5d9; stroke:none;" d="M94 233C95.769 233.779 97.0359 233.912 99 234C97.231 233.221 95.964 233.088 94 233z"/>
<path style="fill:#ffffff; stroke:none;" d="M99 233L100 234L99 233z"/>
<path style="fill:#bfbfff; stroke:none;" d="M69 234L70 235L69 234z"/>
<path style="fill:#ffffff; stroke:none;" d="M70 234C71.2484 234.685 71.5484 234.749 73 235C71.7517 234.315 71.4515 234.251 70 234z"/>
<path style="fill:#d5d5ea; stroke:none;" d="M91.6667 234.333C91.2222 234.778 92.2778 234.722 92.3333 234.667C92.7777 234.222 91.7222 234.278 91.6667 234.333z"/>
<path style="fill:#9c9eb1; stroke:none;" d="M426 234L426 240C426.951 237.715 426.951 236.285 426 234z"/>
<path style="fill:#ffffff; stroke:none;" d="M427 234L428 235L427 234z"/>
<path style="fill:#aaaaff; stroke:none;" d="M64 235L65 236L64 235z"/>
<path style="fill:#cbcbdc; stroke:none;" d="M65 235C66.506 235.683 67.3148 235.826 69 236C67.494 235.317 66.6852 235.174 65 235z"/>
<path style="fill:#a6a6be; stroke:none;" d="M85 235C86.506 235.683 87.3148 235.826 89 236C87.494 235.317 86.6852 235.174 85 235z"/>
<path style="fill:#b1b1d0; stroke:none;" d="M246.333 235.667C246.278 235.722 246.222 236.778 246.667 236.333C246.722 236.278 246.778 235.222 246.333 235.667z"/>
<path style="fill:#acacc8; stroke:none;" d="M60 236C61.506 236.683 62.3148 236.826 64 237C62.494 236.317 61.6852 236.174 60 236z"/>
<path style="fill:#c3c3d2; stroke:none;" d="M80 236C81.5061 236.683 82.3148 236.826 84 237C82.494 236.317 81.6852 236.174 80 236z"/>
<path style="fill:#ccccdd; stroke:none;" d="M48 238C51.3499 239.403 54.5211 238.828 58 238C54.8395 237.028 51.3328 237.932 48 238z"/>
<path style="fill:#ffffff; stroke:none;" d="M77 237C78.2484 237.685 78.5484 237.749 80 238C78.7517 237.315 78.4515 237.251 77 237z"/>
<path style="fill:#a6a6be; stroke:none;" d="M69.6667 238.333C69.2222 238.778 70.2778 238.722 70.3333 238.667C70.7778 238.222 69.7222 238.278 69.6667 238.333z"/>
<path style="fill:#dbdbff; stroke:none;" d="M71 238L72 239L71 238z"/>
<path style="fill:#bcb9d6; stroke:none;" d="M246 238L247 239L246 238z"/>
<path style="fill:#b0b0c1; stroke:none;" d="M44 239C45.5061 239.683 46.3148 239.826 48 240C46.494 239.317 45.6852 239.174 44 239z"/>
<path style="fill:#bfbfdf; stroke:none;" d="M62 239C64.0521 239.874 65.7472 239.953 68 240C65.9479 239.126 64.2528 239.047 62 239z"/>
<path style="fill:#ffffff; stroke:none;" d="M382 239C384.332 239.985 386.457 239.981 389 240C386.668 239.015 384.543 239.019 382 239z"/>
<path style="fill:#bfbfbf; stroke:none;" d="M389 239C390.248 239.685 390.548 239.749 392 240C390.752 239.315 390.452 239.251 389 239z"/>
<path style="fill:#adafc1; stroke:none;" d="M393 239C401.128 242.411 414.186 240 423 240C414.872 236.589 401.814 239 393 239z"/>
<path style="fill:#ffffff; stroke:none;" d="M427.667 239.333C427.222 239.778 428.278 239.722 428.333 239.667C428.778 239.222 427.722 239.278 427.667 239.333z"/>
<path style="fill:#bfbfbf; stroke:none;" d="M430 239C431.506 239.683 432.315 239.826 434 240C432.494 239.317 431.685 239.174 430 239z"/>
<path style="fill:#aaaad5; stroke:none;" d="M437 239C438.506 239.683 439.315 239.826 441 240C439.494 239.317 438.685 239.174 437 239z"/>
<path style="fill:#bfbfbf; stroke:none;" d="M441 239C442.506 239.683 443.315 239.826 445 240C443.494 239.317 442.685 239.174 441 239z"/>
<path style="fill:#ffffff; stroke:none;" d="M445 239L446 240L445 239z"/>
<path style="fill:#c6c6d0; stroke:none;" d="M24 240L25 241L24 240z"/>
<path style="fill:#ffffff; stroke:none;" d="M28.6667 240.333C28.2222 240.778 29.2778 240.722 29.3333 240.667C29.7778 240.222 28.7223 240.278 28.6667 240.333M34 240C35.506 240.683 36.3148 240.826 38 241C36.494 240.317 35.6852 240.174 34 240z"/>
<path style="fill:#b0b0c6; stroke:none;" d="M58 240L59 241L58 240z"/>
<path style="fill:#d5d5ea; stroke:none;" d="M59 240C60.2483 240.685 60.5485 240.749 62 241C60.7516 240.315 60.4516 240.251 59 240z"/>
<path style="fill:#ffffff; stroke:none;" d="M359 240C360.506 240.683 361.315 240.826 363 241C361.494 240.317 360.685 240.174 359 240z"/>
<path style="fill:#e6e6e6; stroke:none;" d="M363 240C365.332 240.985 367.457 240.981 370 241C367.668 240.015 365.543 240.019 363 240z"/>
<path style="fill:#9494b2; stroke:none;" d="M370 240C373.697 241.552 378.017 241 382 241C378.302 239.448 373.983 240 370 240z"/>
<path style="fill:#9898b0; stroke:none;" d="M449 240C456.409 243.109 467.975 241 476 241C468.591 237.891 457.025 240 449 240z"/>
<path style="fill:#d1d1ff; stroke:none;" d="M476 240C478.332 240.985 480.457 240.981 483 241C480.668 240.015 478.543 240.019 476 240z"/>
<path style="fill:#e6e6e6; stroke:none;" d="M483 240C486.959 241.661 491.737 241 496 241C492.041 239.339 487.263 240 483 240z"/>
<path style="fill:#d5d5ff; stroke:none;" d="M496 240C497.506 240.683 498.315 240.826 500 241C498.494 240.317 497.685 240.174 496 240z"/>
<path style="fill:#bfbfbf; stroke:none;" d="M23.3333 241.667C23.2778 241.722 23.2222 242.778 23.6667 242.333C23.7222 242.278 23.7778 241.222 23.3333 241.667z"/>
<path style="fill:#c3c3da; stroke:none;" d="M30 241C31.769 241.779 33.036 241.912 35 242C33.2309 241.221 31.9641 241.088 30 241z"/>
<path style="fill:#a3a3be; stroke:none;" d="M52 241C53.769 241.779 55.0359 241.912 57 242C55.231 241.221 53.9641 241.088 52 241z"/>
<path style="fill:#cacadc; stroke:none;" d="M347 241C350.697 242.552 355.017 242 359 242C355.302 240.448 350.983 241 347 241z"/>
<path style="fill:#8b8ba2; stroke:none;" d="M477 241C483.445 243.704 493.032 242 500 242C493.555 239.296 483.968 241 477 241z"/>
<path style="fill:#babad0; stroke:none;" d="M500 241L501 242L500 241z"/>
<path style="fill:#cacad1; stroke:none;" d="M505 241C511.687 243.806 521.767 242 529 242C522.313 239.194 512.233 241 505 241z"/>
<path style="fill:#ffffff; stroke:none;" d="M555 241L556 242L555 241z"/>
<path style="fill:#c8c8d1; stroke:none;" d="M556.667 241.333C556.222 241.778 557.278 241.722 557.333 241.667C557.778 241.222 556.722 241.278 556.667 241.333z"/>
<path style="fill:#cccccc; stroke:none;" d="M46 242C48.0521 242.874 49.7472 242.953 52 243C49.9479 242.126 48.2528 242.047 46 242z"/>
<path style="fill:#ffffff; stroke:none;" d="M250 242L250 246C250.71 244.24 250.71 243.759 250 242z"/>
<path style="fill:#b2b2c1; stroke:none;" d="M337 242C339.89 243.213 342.874 242.998 346 243C343.11 241.787 340.126 242.002 337 242z"/>
<path style="fill:#bfbfd3; stroke:none;" d="M386 242C387.248 242.685 387.548 242.749 389 243C387.752 242.315 387.452 242.251 386 242z"/>
<path style="fill:#a0a3b5; stroke:none;" d="M390.667 242.333C390.222 242.778 391.278 242.722 391.333 242.667C391.778 242.222 390.722 242.278 390.667 242.333z"/>
<path style="fill:#b5b5d0; stroke:none;" d="M399 242L400 243L399 242z"/>
<path style="fill:#c6c6d5; stroke:none;" d="M405 242C408.432 243.44 412.3 243 416 243C412.568 241.56 408.7 242 405 242z"/>
<path style="fill:#c5c5d5; stroke:none;" d="M417 242C419.052 242.874 420.747 242.953 423 243C420.948 242.126 419.253 242.047 417 242z"/>
<path style="fill:#aaaaaa; stroke:none;" d="M426 242L426 247C426.83 244.97 426.83 244.03 426 242z"/>
<path style="fill:#c2c2d1; stroke:none;" d="M427 242C429.613 243.098 432.164 242.993 435 243C432.387 241.902 429.835 242.007 427 242z"/>
<path style="fill:#a4a4b5; stroke:none;" d="M441.667 242.333C441.222 242.778 442.278 242.722 442.333 242.667C442.778 242.222 441.722 242.278 441.667 242.333z"/>
<path style="fill:#c1c1cf; stroke:none;" d="M444.667 242.333C444.222 242.778 445.278 242.722 445.333 242.667C445.778 242.222 444.722 242.278 444.667 242.333z"/>
<path style="fill:#9fa2b5; stroke:none;" d="M447.667 242.333C447.222 242.778 448.278 242.722 448.333 242.667C448.778 242.222 447.722 242.278 447.667 242.333z"/>
<path style="fill:#c3c5d6; stroke:none;" d="M449.667 242.333C449.222 242.778 450.278 242.722 450.333 242.667C450.778 242.222 449.722 242.278 449.667 242.333z"/>
<path style="fill:#adadc3; stroke:none;" d="M529 242C530.506 242.683 531.315 242.826 533 243C531.494 242.317 530.685 242.174 529 242z"/>
<path style="fill:#7f7f85; stroke:none;" d="M555 242L556 247C557.255 245.25 557.614 244.143 558 242L555 242z"/>
<path style="fill:#9f9fa3; stroke:none;" d="M558 242L558 245C558.696 243.446 558.696 243.554 558 242z"/>
<path style="fill:#d1d1e8; stroke:none;" d="M43 243C44.506 243.683 45.3148 243.826 47 244C45.494 243.317 44.6852 243.174 43 243z"/>
<path style="fill:#dbdbf3; stroke:none;" d="M323 243C325.613 244.098 328.165 243.993 331 244C328.387 242.902 325.836 243.007 323 243z"/>
<path style="fill:#9996b0; stroke:none;" d="M331 243C333.332 243.985 335.457 243.981 338 244C335.668 243.015 333.543 243.019 331 243z"/>
<path style="fill:#dbdbf3; stroke:none;" d="M374 243C377.432 244.44 381.3 244 385 244C381.568 242.56 377.7 243 374 243z"/>
<path style="fill:#e3e3ff; stroke:none;" d="M451.667 243.333C451.222 243.778 452.278 243.722 452.333 243.667C452.778 243.222 451.722 243.278 451.667 243.333z"/>
<path style="fill:#aaaaff; stroke:none;" d="M453 243L454 244L453 243z"/>
<path style="fill:#dcdcf3; stroke:none;" d="M454 243C458.974 245.087 465.638 244 471 244C466.026 241.913 459.362 243 454 243z"/>
<path style="fill:#9292a9; stroke:none;" d="M471 243C478.409 246.109 489.975 244 498 244C490.591 240.891 479.025 243 471 243z"/>
<path style="fill:#a8a8b6; stroke:none;" d="M526 244C529.432 245.44 533.3 245 537 245L537 243L526 244z"/>
<path style="fill:#a9a9a9; stroke:none;" d="M540 243L540 245L542 245L542 243L540 243z"/>
<path style="fill:#c6c6c6; stroke:none;" d="M542.333 243.667C542.278 243.722 542.222 244.778 542.667 244.333C542.722 244.278 542.778 243.222 542.333 243.667z"/>
<path style="fill:#aba8b6; stroke:none;" d="M24.6667 244.333C24.2222 244.778 25.2778 244.722 25.3333 244.667C25.7778 244.222 24.7222 244.278 24.6667 244.333z"/>
<path style="fill:#a7a7bd; stroke:none;" d="M29 246C32.0395 245.276 34.8783 245.026 38 245C34.9109 243.704 31.3075 243.359 29 246M346 244C349.432 245.44 353.3 245 357 245C353.568 243.56 349.7 244 346 244z"/>
<path style="fill:#aaaaaa; stroke:none;" d="M498 244C499.769 244.779 501.036 244.912 503 245C501.231 244.221 499.964 244.088 498 244z"/>
<path style="fill:#ffffff; stroke:none;" d="M503 244C504.248 244.685 504.548 244.749 506 245C504.752 244.315 504.452 244.251 503 244z"/>
<path style="fill:#aaaab3; stroke:none;" d="M513 244C514.506 244.683 515.315 244.826 517 245C515.494 244.317 514.685 244.174 513 244z"/>
<path style="fill:#cccccc; stroke:none;" d="M26 245C27.2483 245.685 27.5485 245.749 29 246C27.7516 245.315 27.4516 245.251 26 245z"/>
<path style="fill:#ffffff; stroke:none;" d="M322 245L323 246L322 245z"/>
<path style="fill:#c6c6d9; stroke:none;" d="M340 245C342.052 245.874 343.747 245.953 346 246C343.948 245.126 342.253 245.047 340 245z"/>
<path style="fill:#dbdbdb; stroke:none;" d="M555.333 245.667C555.278 245.722 555.222 246.778 555.667 246.333C555.722 246.278 555.778 245.222 555.333 245.667z"/>
<path style="fill:#ccccdd; stroke:none;" d="M557.333 245.667C557.278 245.722 557.222 246.778 557.667 246.333C557.722 246.278 557.778 245.222 557.333 245.667z"/>
<path style="fill:#cecede; stroke:none;" d="M332 246L333 247L332 246z"/>
<path style="fill:#e6e6e6; stroke:none;" d="M334.667 246.333C334.222 246.778 335.278 246.722 335.333 246.667C335.778 246.222 334.722 246.278 334.667 246.333z"/>
<path style="fill:#ffffff; stroke:none;" d="M336.667 246.333C336.222 246.778 337.278 246.722 337.333 246.667C337.778 246.222 336.722 246.278 336.667 246.333z"/>
<path style="fill:#bfbfbf; stroke:none;" d="M338 246L339 247L338 246z"/>
<path style="fill:#ffffff; stroke:none;" d="M339 246L340 247L339 246M323 247L324 248L323 247z"/>
<path style="fill:#a7a7b3; stroke:none;" d="M324 247C326.052 247.874 327.747 247.953 330 248C327.948 247.126 326.253 247.047 324 247z"/>
<path style="fill:#c6c6e3; stroke:none;" d="M246.333 248.667C246.278 248.722 246.222 249.778 246.667 249.333C246.722 249.278 246.778 248.222 246.333 248.667z"/>
<path style="fill:#cbcbdc; stroke:none;" d="M249 248L250 249L249 248z"/>
<path style="fill:#9f9dad; stroke:none;" d="M422 248L422 254C422.951 251.715 422.951 250.285 422 248z"/>
<path style="fill:#b5b5bf; stroke:none;" d="M426 248L427 249L426 248z"/>
<path style="fill:#d1d1d1; stroke:none;" d="M427.333 249.667C427.278 249.722 427.222 250.778 427.667 250.333C427.722 250.278 427.778 249.222 427.333 249.667z"/>
<path style="fill:#aaaaaa; stroke:none;" d="M426.333 251.667C426.278 251.722 426.222 252.778 426.667 252.333C426.722 252.278 426.778 251.222 426.333 251.667z"/>
<path style="fill:#ffffff; stroke:none;" d="M425.333 253.667C425.278 253.722 425.222 254.778 425.667 254.333C425.722 254.278 425.778 253.222 425.333 253.667z"/>
<path style="fill:#c5c5ce; stroke:none;" d="M422 254C423.248 254.685 423.549 254.749 425 255C423.752 254.315 423.452 254.251 422 254z"/>
</svg>
